<?xml version="1.0" encoding="UTF-8"?>
<!DOCTYPE svg PUBLIC "-//W3C//DTD SVG 1.1//EN" "http://www.w3.org/Graphics/SVG/1.1/DTD/svg11.dtd">
<svg xmlns="http://www.w3.org/2000/svg" version="1.1" width="1920px" height="1012px" style="shape-rendering:geometricPrecision; text-rendering:geometricPrecision; image-rendering:optimizeQuality; fill-rule:evenodd; clip-rule:evenodd" xmlns:xlink="http://www.w3.org/1999/xlink">
<g><path style="opacity:1" fill="#fefefe" d="M -0.5,-0.5 C 639.5,-0.5 1279.5,-0.5 1919.5,-0.5C 1919.5,336.833 1919.5,674.167 1919.5,1011.5C 1279.5,1011.5 639.5,1011.5 -0.5,1011.5C -0.5,674.167 -0.5,336.833 -0.5,-0.5 Z"/></g>
<g><path style="opacity:1" fill="#020202" d="M 1743.5,38.5 C 1771.12,36.8801 1788.95,49.2134 1797,75.5C 1797.5,112.997 1779,130.83 1741.5,129C 1714.91,120.006 1703.41,101.506 1707,73.5C 1712.88,55.1122 1725.05,43.4455 1743.5,38.5 Z"/></g>
<g><path style="opacity:1" fill="#fea66b" d="M 1714.5,331.5 C 1709.75,324.985 1706.92,317.652 1706,309.5C 1704.07,305.083 1701.57,301.083 1698.5,297.5C 1701.22,296.648 1703.89,295.481 1706.5,294C 1719.17,285.333 1731.83,276.667 1744.5,268C 1762.76,249.024 1783.76,233.69 1807.5,222C 1815.5,216.667 1823.5,211.333 1831.5,206C 1833.71,204.127 1835.54,201.96 1837,199.5C 1839.78,182.071 1847.95,167.905 1861.5,157C 1867.34,152.886 1873.68,150.72 1880.5,150.5C 1876.79,155.428 1873.45,160.595 1870.5,166C 1870.83,166.5 1871.17,167 1871.5,167.5C 1876.75,163.872 1882.41,161.372 1888.5,160C 1888.96,160.414 1889.29,160.914 1889.5,161.5C 1882.54,167.958 1875.71,174.625 1869,181.5C 1864.35,190.449 1860.68,199.782 1858,209.5C 1849.59,214.575 1843.26,221.575 1839,230.5C 1826.84,244.994 1813.67,258.494 1799.5,271C 1786.13,279.346 1772.8,287.679 1759.5,296C 1746.04,309.977 1731.04,321.81 1714.5,331.5 Z"/></g>
<g><path style="opacity:1" fill="#050504" d="M 177.5,368.5 C 174.615,368.806 171.948,368.473 169.5,367.5C 176.217,337.349 183.551,307.349 191.5,277.5C 187.994,273.485 185.827,268.819 185,263.5C 182.817,233.226 190.151,205.559 207,180.5C 210.867,176.298 215.033,172.465 219.5,169C 230.133,167.645 235.633,172.478 236,183.5C 237.315,214.252 229.315,242.252 212,267.5C 208.338,272.682 203.505,276.016 197.5,277.5C 191.496,303.849 185.33,330.182 179,356.5C 177.985,360.44 177.485,364.44 177.5,368.5 Z"/></g>
<g><path style="opacity:1" fill="#060505" d="M 1223.5,252.5 C 1221.62,253.341 1219.62,253.675 1217.5,253.5C 1212.29,251.738 1207.62,252.738 1203.5,256.5C 1200.48,257.343 1197.82,258.843 1195.5,261C 1193.36,261.635 1191.36,261.301 1189.5,260C 1184.25,256.221 1181.75,251.055 1182,244.5C 1179.29,241.022 1176.29,240.689 1173,243.5C 1172.44,252.392 1168.77,259.726 1162,265.5C 1161.17,258.849 1157.67,254.515 1151.5,252.5C 1149.6,239.759 1152.1,228.093 1159,217.5C 1167.99,208.54 1178.82,205.04 1191.5,207C 1203.58,209.619 1213.74,215.452 1222,224.5C 1224.43,233.731 1224.93,243.064 1223.5,252.5 Z"/></g>
<g><path style="opacity:1" fill="#fea66b" d="M 1448.5,370.5 C 1448.33,371.492 1448.66,372.158 1449.5,372.5C 1450.57,385.488 1451.57,398.488 1452.5,411.5C 1452.5,415.018 1452.17,418.351 1451.5,421.5C 1451.5,418.167 1451.5,414.833 1451.5,411.5C 1436.77,411.921 1422.77,409.088 1409.5,403C 1404.6,399.432 1400.77,394.932 1398,389.5C 1397.33,386.5 1397.33,383.5 1398,380.5C 1400.3,378.874 1401.8,376.707 1402.5,374C 1405.33,363.188 1408.16,352.355 1411,341.5C 1422.69,320.769 1434.36,300.103 1446,279.5C 1450.98,266.561 1454.31,253.228 1456,239.5C 1458.38,232.001 1461.72,225.001 1466,218.5C 1466.84,216.993 1468,216.493 1469.5,217C 1471,222.991 1473,228.824 1475.5,234.5C 1477.01,227.321 1480.67,221.487 1486.5,217C 1488.35,215.872 1490.35,215.372 1492.5,215.5C 1491.93,227.773 1489.77,239.773 1486,251.5C 1485,258.833 1484,266.167 1483,273.5C 1481.83,275.842 1480.66,278.176 1479.5,280.5C 1473.42,285.62 1467.26,290.62 1461,295.5C 1458.32,306.858 1453.99,317.524 1448,327.5C 1447.67,338.5 1447.33,349.5 1447,360.5C 1446.08,364.69 1443.91,368.024 1440.5,370.5C 1442.99,370.782 1445.65,370.782 1448.5,370.5 Z"/></g>
<g><path style="opacity:1" fill="#fea66b" d="M 382.5,363.5 C 381.512,349.122 384.845,335.789 392.5,323.5C 397.854,324.437 403.188,324.437 408.5,323.5C 410.751,320.705 413.418,318.372 416.5,316.5C 425.05,311.595 434.05,307.762 443.5,305C 467.299,298.381 491.299,293.048 515.5,289C 519.324,287.21 522.157,284.377 524,280.5C 525.124,274.897 525.79,269.231 526,263.5C 528.586,257.408 533.086,253.741 539.5,252.5C 539.586,250.323 540.253,248.323 541.5,246.5C 546.801,241.245 551.134,235.245 554.5,228.5C 557.411,227.208 559.244,228.208 560,231.5C 560.687,233.568 560.52,235.568 559.5,237.5C 574.634,238.728 575.301,242.895 561.5,250C 559.866,250.494 558.199,250.66 556.5,250.5C 556.335,266.497 551.835,281.163 543,294.5C 539.526,300.273 535.026,305.107 529.5,309C 504.053,318.062 479.387,328.728 455.5,341C 438.268,347.058 420.602,351.391 402.5,354C 395.727,356.886 389.06,360.053 382.5,363.5 Z"/></g>
<g><path style="opacity:1" fill="#fca56a" d="M 1203.5,256.5 C 1207.99,254.672 1212.65,253.672 1217.5,253.5C 1219.62,253.675 1221.62,253.341 1223.5,252.5C 1218.11,263.994 1214.11,275.994 1211.5,288.5C 1207.93,300.298 1202.27,310.965 1194.5,320.5C 1194.29,318.856 1194.62,317.356 1195.5,316C 1188.03,316.674 1181.37,314.841 1175.5,310.5C 1172.14,305.101 1168.31,300.101 1164,295.5C 1160.89,290.996 1159.05,285.996 1158.5,280.5C 1157.5,280.5 1156.5,280.5 1155.5,280.5C 1156.17,278.181 1156.33,275.847 1156,273.5C 1151.97,268.085 1148.47,262.418 1145.5,256.5C 1146.14,253.206 1148.14,251.873 1151.5,252.5C 1157.67,254.515 1161.17,258.849 1162,265.5C 1168.77,259.726 1172.44,252.392 1173,243.5C 1176.29,240.689 1179.29,241.022 1182,244.5C 1181.75,251.055 1184.25,256.221 1189.5,260C 1191.36,261.301 1193.36,261.635 1195.5,261C 1197.82,258.843 1200.48,257.343 1203.5,256.5 Z"/></g>
<g><path style="opacity:1" fill="#936548" d="M 1217.5,253.5 C 1212.65,253.672 1207.99,254.672 1203.5,256.5C 1207.62,252.738 1212.29,251.738 1217.5,253.5 Z"/></g>
<g><path style="opacity:1" fill="#030202" d="M 268.5,270.5 C 264.362,272.854 260.529,275.854 257,279.5C 256.333,280.833 256.333,282.167 257,283.5C 258.608,286.772 260.608,289.772 263,292.5C 269.255,298.083 274.755,304.25 279.5,311C 278.421,313.155 277.087,315.155 275.5,317C 269.241,319.975 262.741,322.142 256,323.5C 255.365,325.635 255.699,327.635 257,329.5C 261.564,333.531 266.397,337.198 271.5,340.5C 266.048,341.802 261.881,344.802 259,349.5C 258.045,354.572 256.878,359.572 255.5,364.5C 253.805,368.195 251.139,370.861 247.5,372.5C 243.187,372.452 239.187,371.285 235.5,369C 216.872,358.214 204.039,342.714 197,322.5C 195.965,315.22 196.965,308.22 200,301.5C 207.255,285.584 218.088,272.751 232.5,263C 246.896,255.003 258.896,257.503 268.5,270.5 Z"/></g>
<g><path style="opacity:1" fill="#070606" d="M 1570.5,277.5 C 1561.04,277.091 1552.04,278.925 1543.5,283C 1540.22,285.259 1538.22,288.259 1537.5,292C 1537.74,295.652 1539.74,297.819 1543.5,298.5C 1544.45,304.075 1544.79,309.741 1544.5,315.5C 1533,318.28 1527.67,325.28 1528.5,336.5C 1521.61,331.892 1518.28,325.392 1518.5,317C 1519.22,302.501 1523.72,289.334 1532,277.5C 1540.07,268.017 1549.9,265.85 1561.5,271C 1564.92,272.699 1567.92,274.865 1570.5,277.5 Z"/></g>
<g><path style="opacity:1" fill="#fda56a" d="M 1570.5,277.5 C 1573.02,277.755 1575.35,278.589 1577.5,280C 1580.19,282.754 1582.52,285.754 1584.5,289C 1590.6,290.43 1593.76,294.263 1594,300.5C 1599.32,307.635 1603.49,315.468 1606.5,324C 1604.02,327.009 1603.02,330.509 1603.5,334.5C 1603.67,336.833 1603.83,339.167 1604,341.5C 1604.28,342.416 1604.78,343.082 1605.5,343.5C 1606.42,345.759 1607.76,347.759 1609.5,349.5C 1605.44,358.532 1598.44,362.366 1588.5,361C 1578.67,358.097 1568.67,356.264 1558.5,355.5C 1556.46,350.622 1553.13,346.788 1548.5,344C 1541.68,341.566 1535.02,339.066 1528.5,336.5C 1527.67,325.28 1533,318.28 1544.5,315.5C 1545.16,312.854 1545.5,310.021 1545.5,307C 1545.48,303.748 1544.81,300.915 1543.5,298.5C 1539.74,297.819 1537.74,295.652 1537.5,292C 1538.22,288.259 1540.22,285.259 1543.5,283C 1552.04,278.925 1561.04,277.091 1570.5,277.5 Z"/></g>
<g><path style="opacity:1" fill="#897186" d="M 1151.5,285.5 C 1152.21,284.596 1153.21,284.263 1154.5,284.5C 1154.5,286.833 1154.5,289.167 1154.5,291.5C 1154.06,289.156 1153.06,287.156 1151.5,285.5 Z"/></g>
<g><path style="opacity:1" fill="#023399" d="M 1151.5,285.5 C 1153.06,287.156 1154.06,289.156 1154.5,291.5C 1155.78,303.894 1161.11,314.06 1170.5,322C 1179.02,327.11 1187.02,326.61 1194.5,320.5C 1202.27,310.965 1207.93,300.298 1211.5,288.5C 1228.04,296.769 1245.04,303.936 1262.5,310C 1280.9,330.893 1297.56,353.059 1312.5,376.5C 1312.14,377.183 1311.8,377.85 1311.5,378.5C 1307.46,384.723 1302.79,390.556 1297.5,396C 1295.81,396.847 1294.14,397.68 1292.5,398.5C 1285.83,398.666 1279.16,398.5 1272.5,398C 1268.43,390.7 1264.77,383.2 1261.5,375.5C 1257.97,371.942 1254.14,371.608 1250,374.5C 1246.79,389.782 1243.79,405.116 1241,420.5C 1237.51,434.125 1234.18,447.792 1231,461.5C 1228.98,488.79 1227.98,516.124 1228,543.5C 1226.24,548.036 1223.74,552.036 1220.5,555.5C 1219.37,553.871 1218.04,552.371 1216.5,551C 1179.12,531.196 1139.29,520.03 1097,517.5C 1084.76,517.445 1073.26,520.112 1062.5,525.5C 1061.24,525.539 1060.24,525.039 1059.5,524C 1064.3,520.201 1068.8,516.034 1073,511.5C 1085.78,486.834 1091.95,460.501 1091.5,432.5C 1093.39,430.689 1095.72,429.522 1098.5,429C 1104.2,427.824 1109.87,426.491 1115.5,425C 1119.03,421.131 1122.87,417.631 1127,414.5C 1127.46,411.219 1128.29,408.052 1129.5,405C 1127.99,398.122 1125.49,391.622 1122,385.5C 1116.09,376.935 1112.42,377.935 1111,388.5C 1106.2,390.628 1103.87,394.295 1104,399.5C 1102.83,401.167 1101.67,402.833 1100.5,404.5C 1098.7,405.788 1097.03,405.788 1095.5,404.5C 1098.66,394.851 1102.83,385.851 1108,377.5C 1105.2,381.299 1102.04,384.799 1098.5,388C 1096.72,388.122 1095.05,387.622 1093.5,386.5C 1084.77,381.625 1075.43,379.459 1065.5,380C 1063.12,380.223 1061.45,381.39 1060.5,383.5C 1058.16,383.021 1056.82,381.521 1056.5,379C 1064.32,368.194 1070.15,356.361 1074,343.5C 1074.98,335.862 1075.64,328.195 1076,320.5C 1081.4,314.934 1086.24,308.934 1090.5,302.5C 1111.15,297.97 1131.48,292.303 1151.5,285.5 Z"/></g>
<g><path style="opacity:1" fill="#fd0201" d="M 1698.5,297.5 C 1701.57,301.083 1704.07,305.083 1706,309.5C 1706.92,317.652 1709.75,324.985 1714.5,331.5C 1714.2,334.642 1712.53,336.809 1709.5,338C 1702.83,341.585 1696,344.752 1689,347.5C 1682.98,368.209 1683.32,388.875 1690,409.5C 1694.71,416.244 1698.37,423.578 1701,431.5C 1701.96,435.777 1702.46,440.111 1702.5,444.5C 1700.14,451.668 1701.31,458.002 1706,463.5C 1713.42,478.67 1717.42,494.67 1718,511.5C 1714.3,516.027 1710.47,520.361 1706.5,524.5C 1707.68,515.783 1704.01,511.45 1695.5,511.5C 1692.1,511.561 1688.76,512.061 1685.5,513C 1673.92,518.454 1661.92,522.788 1649.5,526C 1631.28,528.324 1613.78,525.824 1597,518.5C 1595.22,520.293 1593.39,521.959 1591.5,523.5C 1585.77,526.509 1579.77,527.175 1573.5,525.5C 1571.92,513.927 1568.42,502.927 1563,492.5C 1553.21,472.249 1542.87,452.249 1532,432.5C 1531.1,431.299 1529.93,430.465 1528.5,430C 1510.6,427.423 1492.6,426.256 1474.5,426.5C 1466.61,426.153 1458.95,425.153 1451.5,423.5C 1451.5,422.833 1451.5,422.167 1451.5,421.5C 1452.17,418.351 1452.5,415.018 1452.5,411.5C 1451.57,398.488 1450.57,385.488 1449.5,372.5C 1461.79,370.52 1474.46,369.853 1487.5,370.5C 1493.17,373.114 1499.17,374.447 1505.5,374.5C 1505.39,372.097 1506.39,370.264 1508.5,369C 1523.75,359.305 1540.42,354.805 1558.5,355.5C 1568.67,356.264 1578.67,358.097 1588.5,361C 1598.44,362.366 1605.44,358.532 1609.5,349.5C 1607.76,347.759 1606.42,345.759 1605.5,343.5C 1623.13,327.845 1643.13,316.012 1665.5,308C 1674.86,302.804 1683.53,296.637 1691.5,289.5C 1694.3,291.783 1696.64,294.45 1698.5,297.5 Z"/></g>
<g><path style="opacity:1" fill="#fca56a" d="M 268.5,270.5 C 274.315,276.111 278.648,282.778 281.5,290.5C 286.456,291.494 291.456,291.827 296.5,291.5C 295.992,294.176 295.825,296.843 296,299.5C 299.289,301.888 302.456,304.388 305.5,307C 302.709,311.082 301.876,315.582 303,320.5C 305,321.833 307,323.167 309,324.5C 310.16,329.111 310.993,333.777 311.5,338.5C 305.32,343.955 297.987,346.788 289.5,347C 277.818,352.189 266.484,358.022 255.5,364.5C 256.878,359.572 258.045,354.572 259,349.5C 261.881,344.802 266.048,341.802 271.5,340.5C 266.397,337.198 261.564,333.531 257,329.5C 255.699,327.635 255.365,325.635 256,323.5C 262.741,322.142 269.241,319.975 275.5,317C 277.087,315.155 278.421,313.155 279.5,311C 274.755,304.25 269.255,298.083 263,292.5C 260.608,289.772 258.608,286.772 257,283.5C 256.333,282.167 256.333,280.833 257,279.5C 260.529,275.854 264.362,272.854 268.5,270.5 Z"/></g>
<g><path style="opacity:1" fill="#fb9756" d="M 1155.5,280.5 C 1156.5,280.5 1157.5,280.5 1158.5,280.5C 1159.05,285.996 1160.89,290.996 1164,295.5C 1168.31,300.101 1172.14,305.101 1175.5,310.5C 1181.37,314.841 1188.03,316.674 1195.5,316C 1194.62,317.356 1194.29,318.856 1194.5,320.5C 1187.02,326.61 1179.02,327.11 1170.5,322C 1161.11,314.06 1155.78,303.894 1154.5,291.5C 1154.5,289.167 1154.5,286.833 1154.5,284.5C 1154.23,282.901 1154.57,281.568 1155.5,280.5 Z"/></g>
<g><path style="opacity:1" fill="#040303" d="M 784.5,329.5 C 786.061,339.432 787.061,349.432 787.5,359.5C 786.378,364.289 783.711,367.956 779.5,370.5C 759.921,375.55 746.254,368.883 738.5,350.5C 737.672,349.585 736.672,348.919 735.5,348.5C 727.334,357.831 718.334,366.331 708.5,374C 706.975,375.009 705.308,375.509 703.5,375.5C 703.747,368.836 701.414,363.336 696.5,359C 694.866,358.506 693.199,358.34 691.5,358.5C 684.481,322.554 699.314,304.22 736,303.5C 753.868,302.671 768.868,308.671 781,321.5C 782.454,324.071 783.62,326.738 784.5,329.5 Z"/></g>
<g><path style="opacity:1" fill="#925f3d" d="M 1543.5,298.5 C 1544.81,300.915 1545.48,303.748 1545.5,307C 1545.5,310.021 1545.16,312.854 1544.5,315.5C 1544.79,309.741 1544.45,304.075 1543.5,298.5 Z"/></g>
<g><path style="opacity:1" fill="#e7ba02" d="M 392.5,323.5 C 384.845,335.789 381.512,349.122 382.5,363.5C 376.307,369.232 368.974,372.232 360.5,372.5C 360.134,386.575 362.301,400.242 367,413.5C 375.419,425.34 381.419,438.34 385,452.5C 389.404,469.322 393.071,486.322 396,503.5C 401.973,512.306 408.139,520.972 414.5,529.5C 413.74,531.36 412.74,533.027 411.5,534.5C 388.506,558.174 361.172,575.007 329.5,585C 314.057,589.351 298.39,590.518 282.5,588.5C 282.334,581.492 282.5,574.492 283,567.5C 284.742,560.779 286.575,554.112 288.5,547.5C 287.163,538.827 283.663,531.16 278,524.5C 262.956,507.125 248.29,489.458 234,471.5C 233.383,470.551 233.549,469.718 234.5,469C 221.766,462.299 210.766,464.466 201.5,475.5C 199.629,475.141 198.129,474.141 197,472.5C 191.498,463.493 183.998,456.827 174.5,452.5C 182.556,441.938 191.556,432.104 201.5,423C 211.836,416.163 222.503,409.83 233.5,404C 244.627,396.476 249.294,385.976 247.5,372.5C 251.139,370.861 253.805,368.195 255.5,364.5C 266.484,358.022 277.818,352.189 289.5,347C 297.987,346.788 305.32,343.955 311.5,338.5C 329.361,330.894 348.028,327.061 367.5,327C 375.113,320.071 384.113,316.571 394.5,316.5C 394.122,318.921 393.455,321.254 392.5,323.5 Z"/></g>
<g><path style="opacity:1" fill="#5b5a5a" d="M 784.5,329.5 C 787.697,339.331 788.697,349.331 787.5,359.5C 787.061,349.432 786.061,339.432 784.5,329.5 Z"/></g>
<g><path style="opacity:1" fill="#fca569" d="M 779.5,370.5 C 776.844,378.134 774.177,385.8 771.5,393.5C 768.379,402.409 763.713,410.409 757.5,417.5C 751.429,426.518 743.095,429.351 732.5,426C 723.246,419.79 716.246,411.623 711.5,401.5C 709.425,396.681 707.925,391.681 707,386.5C 706.066,387.858 705.232,389.192 704.5,390.5C 704.674,388.139 705.007,385.806 705.5,383.5C 701.585,383.753 697.919,383.087 694.5,381.5C 693.252,379.351 691.752,377.351 690,375.5C 689.311,369.725 689.811,364.058 691.5,358.5C 693.199,358.34 694.866,358.506 696.5,359C 701.414,363.336 703.747,368.836 703.5,375.5C 705.308,375.509 706.975,375.009 708.5,374C 718.334,366.331 727.334,357.831 735.5,348.5C 736.672,348.919 737.672,349.585 738.5,350.5C 746.254,368.883 759.921,375.55 779.5,370.5 Z"/></g>
<g><path style="opacity:1" fill="#fe4b4d" d="M 1487.5,370.5 C 1474.46,369.853 1461.79,370.52 1449.5,372.5C 1448.66,372.158 1448.33,371.492 1448.5,370.5C 1461.5,369.167 1474.5,369.167 1487.5,370.5 Z"/></g>
<g><path style="opacity:1" fill="#e8bb11" d="M 169.5,367.5 C 171.948,368.473 174.615,368.806 177.5,368.5C 178.814,379.644 177.814,390.644 174.5,401.5C 172.139,401.326 169.806,400.993 167.5,400.5C 167.03,394.099 165.363,388.099 162.5,382.5C 163.514,376.808 165.848,371.808 169.5,367.5 Z"/></g>
<g><path style="opacity:1" fill="#fca56b" d="M 1093.5,386.5 C 1091.58,389.603 1089.41,392.603 1087,395.5C 1085.97,401.794 1088.81,404.794 1095.5,404.5C 1097.03,405.788 1098.7,405.788 1100.5,404.5C 1101.67,402.833 1102.83,401.167 1104,399.5C 1103.87,394.295 1106.2,390.628 1111,388.5C 1112.42,377.935 1116.09,376.935 1122,385.5C 1125.49,391.622 1127.99,398.122 1129.5,405C 1128.29,408.052 1127.46,411.219 1127,414.5C 1122.87,417.631 1119.03,421.131 1115.5,425C 1109.87,426.491 1104.2,427.824 1098.5,429C 1095.72,429.522 1093.39,430.689 1091.5,432.5C 1087.41,434.042 1083.41,435.875 1079.5,438C 1059.46,443.898 1049.63,436.398 1050,415.5C 1050.88,412.211 1051.55,408.877 1052,405.5C 1054.28,397.938 1057.11,390.604 1060.5,383.5C 1061.45,381.39 1063.12,380.223 1065.5,380C 1075.43,379.459 1084.77,381.625 1093.5,386.5 Z"/></g>
<g><path style="opacity:1" fill="#030303" d="M 694.5,381.5 C 697.919,383.087 701.585,383.753 705.5,383.5C 705.007,385.806 704.674,388.139 704.5,390.5C 702.117,401.422 701.951,412.422 704,423.5C 707.333,436.833 710.667,450.167 714,463.5C 718.535,474.75 726.702,478.416 738.5,474.5C 746.69,461.772 752.856,448.105 757,433.5C 757.499,428.177 757.666,422.844 757.5,417.5C 763.713,410.409 768.379,402.409 771.5,393.5C 779.578,394.289 786.412,397.622 792,403.5C 792.494,405.134 792.66,406.801 792.5,408.5C 788,421.18 784.167,434.18 781,447.5C 780.333,455.5 780.333,463.5 781,471.5C 783.309,477.46 785.642,483.46 788,489.5C 791.175,493.19 793.842,497.19 796,501.5C 804.373,503.045 807.873,508.045 806.5,516.5C 805.8,519.063 804.8,521.563 803.5,524C 809.165,530.763 812.665,538.596 814,547.5C 816.422,561.438 818.255,575.438 819.5,589.5C 810.535,591.27 801.202,592.437 791.5,593C 786.907,593.457 783.574,595.624 781.5,599.5C 779.39,600.453 778.223,602.119 778,604.5C 777.183,610.016 777.349,615.35 778.5,620.5C 783.076,632.984 789.243,644.651 797,655.5C 797.483,656.448 797.649,657.448 797.5,658.5C 794.484,659.343 791.817,660.843 789.5,663C 786.883,663.822 784.216,664.322 781.5,664.5C 776.681,664.648 772.015,663.982 767.5,662.5C 756.285,656.09 749.451,646.423 747,633.5C 739.482,619.78 730.982,606.78 721.5,594.5C 711.346,608.796 701.179,623.129 691,637.5C 684.953,645.092 678.786,652.592 672.5,660C 666.652,664.364 660.319,665.364 653.5,663C 650.941,661.223 648.274,659.723 645.5,658.5C 653.053,652.783 659.886,646.116 666,638.5C 673.084,620.453 673.084,602.453 666,584.5C 663.882,579.906 661.048,575.906 657.5,572.5C 655.664,569.832 653.331,567.666 650.5,566C 644.459,562.979 638.459,559.979 632.5,557C 628.418,554.095 625.751,550.262 624.5,545.5C 624.336,542.813 624.503,540.146 625,537.5C 627.333,534.5 629.667,531.5 632,528.5C 633,524.167 634,519.833 635,515.5C 638.241,509.098 642.075,503.098 646.5,497.5C 640.805,488.826 640.138,479.826 644.5,470.5C 645.315,469.571 646.148,468.571 647,467.5C 646.84,471.815 648.006,475.649 650.5,479C 652.635,479.635 654.635,479.301 656.5,478C 660.273,474.282 663.44,470.116 666,465.5C 673.461,446.196 676.794,426.196 676,405.5C 674.56,398.111 670.393,392.945 663.5,390C 662.207,389.51 660.873,389.343 659.5,389.5C 663.197,385.416 667.864,382.916 673.5,382C 680.492,381.5 687.492,381.334 694.5,381.5 Z"/></g>
<g><path style="opacity:1" fill="#fea66b" d="M 1311.5,378.5 C 1321.5,384.362 1328,393.029 1331,404.5C 1331.92,408.445 1332.42,412.445 1332.5,416.5C 1332.39,436.294 1330.89,455.961 1328,475.5C 1326.09,496.461 1324.75,517.461 1324,538.5C 1323.71,540.952 1323.04,543.285 1322,545.5C 1318.28,549.548 1314.95,553.882 1312,558.5C 1308.57,559.82 1305.23,559.487 1302,557.5C 1297.35,560.795 1293.85,559.962 1291.5,555C 1292.65,551.079 1293.31,547.079 1293.5,543C 1291.76,536.625 1291.26,530.125 1292,523.5C 1295.06,514.971 1297.73,506.305 1300,497.5C 1304.51,463.908 1302.01,430.908 1292.5,398.5C 1294.14,397.68 1295.81,396.847 1297.5,396C 1302.79,390.556 1307.46,384.723 1311.5,378.5 Z"/></g>
<g><path style="opacity:1" fill="#fb9653" d="M 757.5,417.5 C 757.666,422.844 757.499,428.177 757,433.5C 752.856,448.105 746.69,461.772 738.5,474.5C 726.702,478.416 718.535,474.75 714,463.5C 710.667,450.167 707.333,436.833 704,423.5C 701.951,412.422 702.117,401.422 704.5,390.5C 705.232,389.192 706.066,387.858 707,386.5C 707.925,391.681 709.425,396.681 711.5,401.5C 716.246,411.623 723.246,419.79 732.5,426C 743.095,429.351 751.429,426.518 757.5,417.5 Z"/></g>
<g><path style="opacity:1" fill="#f2f1f3" d="M 1095.5,404.5 C 1088.81,404.794 1085.97,401.794 1087,395.5C 1089.41,392.603 1091.58,389.603 1093.5,386.5C 1095.05,387.622 1096.72,388.122 1098.5,388C 1102.04,384.799 1105.2,381.299 1108,377.5C 1102.83,385.851 1098.66,394.851 1095.5,404.5 Z"/></g>
<g><path style="opacity:1" fill="#fda56a" d="M 659.5,389.5 C 660.873,389.343 662.207,389.51 663.5,390C 670.393,392.945 674.56,398.111 676,405.5C 676.794,426.196 673.461,446.196 666,465.5C 663.44,470.116 660.273,474.282 656.5,478C 654.635,479.301 652.635,479.635 650.5,479C 648.006,475.649 646.84,471.815 647,467.5C 646.148,468.571 645.315,469.571 644.5,470.5C 644.657,469.127 644.49,467.793 644,466.5C 643.333,465.167 642.667,465.167 642,466.5C 631.275,483.886 619.775,500.72 607.5,517C 613.06,526.63 618.727,536.13 624.5,545.5C 625.751,550.262 628.418,554.095 632.5,557C 638.459,559.979 644.459,562.979 650.5,566C 653.331,567.666 655.664,569.832 657.5,572.5C 656.691,574.292 656.191,576.292 656,578.5C 655.107,579.081 654.107,579.415 653,579.5C 646.162,576.664 639.662,573.164 633.5,569C 624.782,565.454 621.615,568.287 624,577.5C 627.87,588.211 629.537,599.211 629,610.5C 628.439,611.022 627.772,611.355 627,611.5C 625.233,610.66 623.899,609.327 623,607.5C 618.453,597.736 614.453,587.736 611,577.5C 610.833,590.513 610.333,603.513 609.5,616.5C 606.895,618.058 604.562,617.725 602.5,615.5C 601.551,603.385 599.884,591.385 597.5,579.5C 591.287,588.964 587.12,599.298 585,610.5C 583.604,612.527 581.938,612.86 580,611.5C 578.873,599.896 580.04,588.562 583.5,577.5C 580.386,578.091 577.886,579.758 576,582.5C 574.091,587.037 571.257,590.704 567.5,593.5C 566.677,591.545 566.51,589.545 567,587.5C 571.775,574.614 578.108,562.614 586,551.5C 586.824,548.118 586.657,544.784 585.5,541.5C 579.401,537.867 574.234,533.2 570,527.5C 568.091,522.816 568.091,518.15 570,513.5C 581.239,490.673 594.239,469.006 609,448.5C 612.042,445.289 615.209,442.289 618.5,439.5C 621.146,428.262 625.312,417.595 631,407.5C 635.167,402 640,397.167 645.5,393C 649.851,390.579 654.517,389.412 659.5,389.5 Z"/></g>
<g><path style="opacity:1" fill="#fda66a" d="M 792.5,408.5 C 810.731,422.254 821.898,440.588 826,463.5C 826.333,468.833 826.667,474.167 827,479.5C 831.976,491.46 836.976,503.46 842,515.5C 849.348,537.575 853.348,560.241 854,583.5C 847.421,594.302 844.087,605.968 844,618.5C 846.041,622.047 847.875,625.714 849.5,629.5C 848.837,632.806 848.337,636.139 848,639.5C 847.086,640.654 846.253,640.487 845.5,639C 844.167,638.333 842.833,638.333 841.5,639C 844.427,643.103 846.593,647.603 848,652.5C 851.099,663.997 853.433,675.664 855,687.5C 855.333,704.167 855.667,720.833 856,737.5C 857.799,741.07 859.299,744.737 860.5,748.5C 849.076,747.183 838.076,748.85 827.5,753.5C 828.134,742.994 827.3,732.661 825,722.5C 815.894,709.289 809.228,694.956 805,679.5C 804.667,675.167 804.333,670.833 804,666.5C 801.214,664.226 799.047,661.56 797.5,658.5C 797.649,657.448 797.483,656.448 797,655.5C 789.243,644.651 783.076,632.984 778.5,620.5C 778.334,615.489 778.501,610.489 779,605.5C 779.655,603.372 780.489,601.372 781.5,599.5C 783.574,595.624 786.907,593.457 791.5,593C 801.202,592.437 810.535,591.27 819.5,589.5C 822.298,587.266 824.131,584.266 825,580.5C 825.667,574.833 825.667,569.167 825,563.5C 822.254,552.265 818.92,541.265 815,530.5C 812.908,525.303 810.074,520.636 806.5,516.5C 807.873,508.045 804.373,503.045 796,501.5C 793.842,497.19 791.175,493.19 788,489.5C 785.642,483.46 783.309,477.46 781,471.5C 780.333,463.5 780.333,455.5 781,447.5C 784.167,434.18 788,421.18 792.5,408.5 Z"/></g>
<g><path style="opacity:1" fill="#ff948e" d="M 1451.5,423.5 C 1458.95,425.153 1466.61,426.153 1474.5,426.5C 1466.5,426.5 1458.5,426.5 1450.5,426.5C 1450.26,425.209 1450.6,424.209 1451.5,423.5 Z"/></g>
<g><path style="opacity:1" fill="#fea66a" d="M 162.5,382.5 C 165.363,388.099 167.03,394.099 167.5,400.5C 169.806,400.993 172.139,401.326 174.5,401.5C 177.113,404.011 179.28,407.011 181,410.5C 181.577,414.888 181.244,419.221 180,423.5C 173.483,434.354 165.816,444.354 157,453.5C 154.088,456.987 152.588,460.987 152.5,465.5C 160.31,462.034 167.643,457.701 174.5,452.5C 183.998,456.827 191.498,463.493 197,472.5C 198.129,474.141 199.629,475.141 201.5,475.5C 181.254,488.221 161.92,502.388 143.5,518C 135.649,520.306 127.982,519.973 120.5,517C 115.826,512.19 113.826,506.357 114.5,499.5C 115.25,488.331 119.083,478.331 126,469.5C 130.957,462.874 136.291,456.54 142,450.5C 145.745,445.702 147.745,440.368 148,434.5C 144.849,428.512 143.849,422.179 145,415.5C 147.58,410.423 150.747,405.756 154.5,401.5C 155.442,394.83 155.609,388.164 155,381.5C 155.893,380.919 156.893,380.585 158,380.5C 159.607,381.074 161.107,381.74 162.5,382.5 Z"/></g>
<g><path style="opacity:1" fill="#fbfaf8" d="M 644.5,470.5 C 640.138,479.826 640.805,488.826 646.5,497.5C 642.075,503.098 638.241,509.098 635,515.5C 634,519.833 633,524.167 632,528.5C 629.667,531.5 627.333,534.5 625,537.5C 624.503,540.146 624.336,542.813 624.5,545.5C 618.727,536.13 613.06,526.63 607.5,517C 619.775,500.72 631.275,483.886 642,466.5C 642.667,465.167 643.333,465.167 644,466.5C 644.49,467.793 644.657,469.127 644.5,470.5 Z"/></g>
<g><path style="opacity:1" fill="#f8f8f8" d="M 759.5,517.5 C 764.833,518.167 770.167,518.833 775.5,519.5C 773.83,524.339 771.497,528.839 768.5,533C 760.134,536.233 751.634,539.066 743,541.5C 738.314,539.979 733.48,539.146 728.5,539C 727.624,537.414 726.624,535.914 725.5,534.5C 722.223,533.746 718.89,533.246 715.5,533C 714.605,528.47 712.105,527.303 708,529.5C 705.855,529.604 704.021,528.937 702.5,527.5C 701.452,528.383 700.285,529.05 699,529.5C 696.419,528.583 694.086,527.249 692,525.5C 691.5,526 691,526.5 690.5,527C 682.85,529.304 677.017,527.138 673,520.5C 671.991,522.025 671.491,523.692 671.5,525.5C 668.5,525.5 665.5,525.5 662.5,525.5C 664.236,517.563 666.236,509.729 668.5,502C 674.604,501.699 680.437,502.865 686,505.5C 687.169,511.205 685.002,514.871 679.5,516.5C 677.732,522.25 679.732,523.917 685.5,521.5C 690.833,514.833 696.167,508.167 701.5,501.5C 702.478,501.977 703.311,502.643 704,503.5C 705.333,501.167 707.333,500.167 710,500.5C 713.5,501 717,501.5 720.5,502C 721.585,504.172 722.919,506.172 724.5,508C 730.899,508.137 736.566,510.137 741.5,514C 747.301,516.134 753.301,517.3 759.5,517.5 Z"/></g>
<g><path style="opacity:1" fill="#fda569" d="M 1706.5,524.5 C 1707.5,532.991 1710,540.991 1714,548.5C 1715.23,555.445 1715.73,562.445 1715.5,569.5C 1677.57,571.844 1640.9,566.344 1605.5,553C 1599.83,551.14 1595.16,547.973 1591.5,543.5C 1591.69,536.623 1591.69,529.957 1591.5,523.5C 1593.39,521.959 1595.22,520.293 1597,518.5C 1613.78,525.824 1631.28,528.324 1649.5,526C 1661.92,522.788 1673.92,518.454 1685.5,513C 1688.76,512.061 1692.1,511.561 1695.5,511.5C 1704.01,511.45 1707.68,515.783 1706.5,524.5 Z"/></g>
<g><path style="opacity:1" fill="#5c5c5c" d="M 759.5,517.5 C 765.206,517.171 770.872,517.505 776.5,518.5C 776.376,519.107 776.043,519.44 775.5,519.5C 770.167,518.833 764.833,518.167 759.5,517.5 Z"/></g>
<g><path style="opacity:1" fill="#e7ba03" d="M 1220.5,555.5 C 1222.46,558.518 1222.96,561.851 1222,565.5C 1219.01,570.801 1216.01,576.135 1213,581.5C 1212.69,596.065 1210.69,610.398 1207,624.5C 1204.43,633.996 1199.6,641.996 1192.5,648.5C 1201.68,633.294 1198.68,620.794 1183.5,611C 1177.24,609.516 1170.9,609.182 1164.5,610C 1155.93,612.955 1147.59,616.455 1139.5,620.5C 1137.27,607.277 1136.11,593.943 1136,580.5C 1135.5,579.5 1135,578.5 1134.5,577.5C 1134,576.479 1133.33,576.312 1132.5,577C 1122.34,596.147 1112.84,615.647 1104,635.5C 1097.72,641.904 1091.55,648.404 1085.5,655C 1083.28,654.244 1080.95,653.411 1078.5,652.5C 1063.09,639.432 1047.09,627.099 1030.5,615.5C 1029.17,614.067 1027.67,612.733 1026,611.5C 1026.05,604.617 1027.39,597.95 1030,591.5C 1039.52,568.796 1050.35,546.796 1062.5,525.5C 1073.26,520.112 1084.76,517.445 1097,517.5C 1139.29,520.03 1179.12,531.196 1216.5,551C 1218.04,552.371 1219.37,553.871 1220.5,555.5 Z"/></g>
<g><path style="opacity:1" fill="#f9f6f4" d="M 806.5,516.5 C 810.074,520.636 812.908,525.303 815,530.5C 818.92,541.265 822.254,552.265 825,563.5C 825.667,569.167 825.667,574.833 825,580.5C 824.131,584.266 822.298,587.266 819.5,589.5C 818.255,575.438 816.422,561.438 814,547.5C 812.665,538.596 809.165,530.763 803.5,524C 804.8,521.563 805.8,519.063 806.5,516.5 Z"/></g>
<g><path style="opacity:1" fill="#010101" d="M 411.5,534.5 C 413.944,541.933 415.277,549.6 415.5,557.5C 415.527,563.051 416.194,568.384 417.5,573.5C 420.2,612.911 417.366,651.911 409,690.5C 406.276,700.429 403.109,710.096 399.5,719.5C 394.926,714.434 389.593,710.267 383.5,707C 375.625,704.29 367.625,701.957 359.5,700C 346.167,699.333 332.833,699.333 319.5,700C 317.567,700.251 315.734,700.751 314,701.5C 313.16,704.202 312.327,706.868 311.5,709.5C 304.371,707.54 299.204,703.207 296,696.5C 285.748,669.905 279.581,642.405 277.5,614C 277.616,608.133 278.116,602.3 279,596.5C 279.875,593.599 281.042,590.932 282.5,588.5C 298.39,590.518 314.057,589.351 329.5,585C 361.172,575.007 388.506,558.174 411.5,534.5 Z"/></g>
<g><path style="opacity:1" fill="#020101" d="M 1591.5,543.5 C 1595.16,547.973 1599.83,551.14 1605.5,553C 1640.9,566.344 1677.57,571.844 1715.5,569.5C 1719.25,576.35 1721.91,583.684 1723.5,591.5C 1724.75,620.685 1721.59,649.352 1714,677.5C 1709.66,690.891 1705.32,704.224 1701,717.5C 1700.06,719.727 1698.89,721.727 1697.5,723.5C 1690.22,724.597 1682.88,724.763 1675.5,724C 1671.46,723.144 1667.79,721.478 1664.5,719C 1657.36,709.395 1651.36,699.228 1646.5,688.5C 1641.16,694.83 1638.16,702.163 1637.5,710.5C 1636.69,712.292 1636.19,714.292 1636,716.5C 1635.5,722.825 1635.33,729.158 1635.5,735.5C 1631.48,735.646 1627.48,735.979 1623.5,736.5C 1598.78,737.301 1577.78,728.968 1560.5,711.5C 1559.31,710.143 1558.31,708.643 1557.5,707C 1562.55,692.772 1566.71,678.272 1570,663.5C 1576.22,636.747 1582.05,609.913 1587.5,583C 1584.86,574.671 1581.53,566.505 1577.5,558.5C 1582.22,553.454 1586.88,548.454 1591.5,543.5 Z"/></g>
<g><path style="opacity:1" fill="#fd6602" d="M 657.5,572.5 C 661.048,575.906 663.882,579.906 666,584.5C 673.084,602.453 673.084,620.453 666,638.5C 659.886,646.116 653.053,652.783 645.5,658.5C 634.968,662.988 623.968,664.655 612.5,663.5C 594.13,660.46 580.463,650.793 571.5,634.5C 565.403,621.276 564.07,607.609 567.5,593.5C 571.257,590.704 574.091,587.037 576,582.5C 577.886,579.758 580.386,578.091 583.5,577.5C 580.04,588.562 578.873,599.896 580,611.5C 581.938,612.86 583.604,612.527 585,610.5C 587.12,599.298 591.287,588.964 597.5,579.5C 599.884,591.385 601.551,603.385 602.5,615.5C 604.562,617.725 606.895,618.058 609.5,616.5C 610.333,603.513 610.833,590.513 611,577.5C 614.453,587.736 618.453,597.736 623,607.5C 623.899,609.327 625.233,610.66 627,611.5C 627.772,611.355 628.439,611.022 629,610.5C 629.537,599.211 627.87,588.211 624,577.5C 621.615,568.287 624.782,565.454 633.5,569C 639.662,573.164 646.162,576.664 653,579.5C 654.107,579.415 655.107,579.081 656,578.5C 656.191,576.292 656.691,574.292 657.5,572.5 Z"/></g>
<g><path style="opacity:1" fill="#5f5f5f" d="M 415.5,557.5 C 416.957,562.598 417.624,567.931 417.5,573.5C 416.194,568.384 415.527,563.051 415.5,557.5 Z"/></g>
<g><path style="opacity:1" fill="#795640" d="M 781.5,599.5 C 780.489,601.372 779.655,603.372 779,605.5C 778.501,610.489 778.334,615.489 778.5,620.5C 777.349,615.35 777.183,610.016 778,604.5C 778.223,602.119 779.39,600.453 781.5,599.5 Z"/></g>
<g><path style="opacity:1" fill="#fea66a" d="M 1192.5,648.5 C 1192.49,650.017 1191.82,651.184 1190.5,652C 1184.97,653.93 1180.3,657.096 1176.5,661.5C 1175.75,664.777 1175.25,668.11 1175,671.5C 1173.96,672.373 1173.12,673.373 1172.5,674.5C 1167.09,680.036 1160.42,683.202 1152.5,684C 1144.07,685.199 1138.57,681.699 1136,673.5C 1135.09,667.366 1134.25,661.366 1133.5,655.5C 1132.69,643.211 1134.69,631.544 1139.5,620.5C 1147.59,616.455 1155.93,612.955 1164.5,610C 1170.9,609.182 1177.24,609.516 1183.5,611C 1198.68,620.794 1201.68,633.294 1192.5,648.5 Z"/></g>
<g><path style="opacity:1" fill="#fea66a" d="M 1030.5,615.5 C 1047.09,627.099 1063.09,639.432 1078.5,652.5C 1068.27,665.91 1059.44,680.244 1052,695.5C 1050.85,696.636 1049.69,697.636 1048.5,698.5C 1040.19,703.764 1031.53,704.598 1022.5,701C 1016.51,693.224 1014.18,684.391 1015.5,674.5C 1016,672.518 1016.5,670.518 1017,668.5C 1019.68,664.995 1022.51,661.661 1025.5,658.5C 1024.44,653.533 1024.27,648.533 1025,643.5C 1026.39,634.058 1028.22,624.725 1030.5,615.5 Z"/></g>
<g><path style="opacity:1" fill="#fea66a" d="M 571.5,634.5 C 580.463,650.793 594.13,660.46 612.5,663.5C 611.624,663.369 610.957,663.702 610.5,664.5C 602.388,683.391 593.221,701.724 583,719.5C 575.838,726.996 569.838,735.329 565,744.5C 558.355,758.786 551.522,772.786 544.5,786.5C 538.28,779.064 530.28,774.398 520.5,772.5C 520.309,767.101 520.809,761.767 522,756.5C 534.371,714.101 550.871,673.434 571.5,634.5 Z"/></g>
<g><path style="opacity:1" fill="#565453" d="M 767.5,662.5 C 772.015,663.982 776.681,664.648 781.5,664.5C 776.552,666.097 771.886,665.431 767.5,662.5 Z"/></g>
<g><path style="opacity:1" fill="#063499" d="M 1133.5,655.5 C 1134.25,661.366 1135.09,667.366 1136,673.5C 1138.57,681.699 1144.07,685.199 1152.5,684C 1160.42,683.202 1167.09,680.036 1172.5,674.5C 1172.83,684.741 1169.33,693.741 1162,701.5C 1151.01,711.488 1139.18,720.322 1126.5,728C 1123.61,732.284 1120.61,736.451 1117.5,740.5C 1108.98,745.629 1101.82,743.963 1096,735.5C 1094.23,732.968 1092.73,730.301 1091.5,727.5C 1104.63,713.551 1112.13,696.884 1114,677.5C 1116.56,666.451 1123.06,659.117 1133.5,655.5 Z"/></g>
<g><path style="opacity:1" fill="#053499" d="M 1015.5,674.5 C 1014.18,684.391 1016.51,693.224 1022.5,701C 1031.53,704.598 1040.19,703.764 1048.5,698.5C 1050.15,716.238 1046.98,733.238 1039,749.5C 1034.02,756.481 1028.35,762.814 1022,768.5C 1015.04,779.096 1011.54,790.762 1011.5,803.5C 1004.88,808.198 997.884,808.698 990.5,805C 987.959,802.621 985.293,800.454 982.5,798.5C 985.392,788.376 987.225,778.043 988,767.5C 988.333,752.833 988.667,738.167 989,723.5C 993.153,704.52 1001.99,688.187 1015.5,674.5 Z"/></g>
<g><path style="opacity:1" fill="#c10201" d="M 187.5,721.5 C 187.54,724.425 186.707,727.091 185,729.5C 181.088,734.083 176.588,737.917 171.5,741C 177.733,743.312 184.066,745.479 190.5,747.5C 191.48,750.086 191.813,752.753 191.5,755.5C 190.833,755.5 190.5,755.833 190.5,756.5C 190.371,758.216 190.038,759.883 189.5,761.5C 187.473,761.338 185.473,761.505 183.5,762C 182.167,764.333 180.833,766.667 179.5,769C 169.953,770.879 163.453,776.379 160,785.5C 159.501,790.489 159.334,795.489 159.5,800.5C 146.999,804.501 134.665,809.001 122.5,814C 117.459,820.708 111.459,826.375 104.5,831C 99.9506,833.289 95.6173,832.955 91.5,830C 83.0685,823.036 81.2352,814.536 86,804.5C 88.8333,800.167 91.6667,795.833 94.5,791.5C 91.3805,788.932 89.5471,785.599 89,781.5C 85.223,768.847 87.5564,757.514 96,747.5C 104.466,737.863 114.3,730.029 125.5,724C 126.249,722.266 126.749,720.433 127,718.5C 134.215,706.952 143.715,697.785 155.5,691C 160.403,690.063 165.07,690.73 169.5,693C 177.896,700.952 183.896,710.452 187.5,721.5 Z"/></g>
<g><path style="opacity:1" fill="#fea66a" d="M 399.5,719.5 C 389.531,741.215 378.698,762.548 367,783.5C 363.446,788.388 359.279,792.554 354.5,796C 348.327,797.932 341.994,798.932 335.5,799C 297.144,799.875 258.811,799.375 220.5,797.5C 220.819,792.637 220.486,787.97 219.5,783.5C 219.5,775.5 219.5,767.5 219.5,759.5C 227.493,758.744 235.493,757.91 243.5,757C 248.731,755.828 253.731,754.162 258.5,752C 253.751,752.359 249.085,753.359 244.5,755C 236.198,756.053 227.865,756.553 219.5,756.5C 219.823,749.978 219.49,743.645 218.5,737.5C 218.5,731.167 218.5,724.833 218.5,718.5C 235.937,719.81 252.937,717.977 269.5,713C 283.4,710.391 295.733,713.558 306.5,722.5C 308.367,718.231 310.034,713.898 311.5,709.5C 312.327,706.868 313.16,704.202 314,701.5C 315.734,700.751 317.567,700.251 319.5,700C 332.833,699.333 346.167,699.333 359.5,700C 367.625,701.957 375.625,704.29 383.5,707C 389.593,710.267 394.926,714.434 399.5,719.5 Z"/></g>
<g><path style="opacity:1" fill="#fda56a" d="M 1697.5,723.5 C 1691.51,735.14 1686.35,747.14 1682,759.5C 1680.36,763.968 1677.86,767.801 1674.5,771C 1670.83,772.667 1667.17,774.333 1663.5,776C 1642.39,778.277 1621.39,781.277 1600.5,785C 1587.49,789.561 1574.82,794.727 1562.5,800.5C 1559.48,800.665 1556.48,800.498 1553.5,800C 1551.02,798.674 1548.52,797.507 1546,796.5C 1533.94,797.486 1522.11,799.486 1510.5,802.5C 1505.47,804.177 1500.47,806.01 1495.5,808C 1485.65,815.345 1475.65,822.512 1465.5,829.5C 1460.8,832.047 1455.8,832.88 1450.5,832C 1448.3,829.579 1446.97,826.745 1446.5,823.5C 1446.39,817.12 1446.89,810.787 1448,804.5C 1448.67,802.41 1449.84,800.743 1451.5,799.5C 1455.11,797.871 1458.11,795.538 1460.5,792.5C 1463.86,791.316 1466.86,789.483 1469.5,787C 1478.21,777.627 1487.54,768.96 1497.5,761C 1512.89,751.822 1529.56,747.655 1547.5,748.5C 1550.05,735.525 1554.38,723.192 1560.5,711.5C 1577.78,728.968 1598.78,737.301 1623.5,736.5C 1628.22,737.372 1633.05,738.372 1638,739.5C 1638.5,739.167 1639,738.833 1639.5,738.5C 1637.87,731.948 1637.2,725.281 1637.5,718.5C 1637.5,715.833 1637.5,713.167 1637.5,710.5C 1638.16,702.163 1641.16,694.83 1646.5,688.5C 1651.36,699.228 1657.36,709.395 1664.5,719C 1667.79,721.478 1671.46,723.144 1675.5,724C 1682.88,724.763 1690.22,724.597 1697.5,723.5 Z"/></g>
<g><path style="opacity:1" fill="#040202" d="M 218.5,718.5 C 218.5,724.833 218.5,731.167 218.5,737.5C 218.5,743.5 218.5,749.5 218.5,755.5C 209.5,755.5 200.5,755.5 191.5,755.5C 191.813,752.753 191.48,750.086 190.5,747.5C 184.066,745.479 177.733,743.312 171.5,741C 176.588,737.917 181.088,734.083 185,729.5C 186.707,727.091 187.54,724.425 187.5,721.5C 197.763,719.981 208.096,718.981 218.5,718.5 Z"/></g>
<g><path style="opacity:1" fill="#847b76" d="M 1637.5,710.5 C 1637.5,713.167 1637.5,715.833 1637.5,718.5C 1636.83,724.167 1636.17,729.833 1635.5,735.5C 1635.33,729.158 1635.5,722.825 1636,716.5C 1636.19,714.292 1636.69,712.292 1637.5,710.5 Z"/></g>
<g><path style="opacity:1" fill="#030303" d="M 1091.5,727.5 C 1092.73,730.301 1094.23,732.968 1096,735.5C 1101.82,743.963 1108.98,745.629 1117.5,740.5C 1117.33,751.505 1117.5,762.505 1118,773.5C 1119.44,778.389 1121.44,783.055 1124,787.5C 1126.19,799.612 1121.36,807.445 1109.5,811C 1094.04,815.591 1085.71,809.757 1084.5,793.5C 1085.23,789.485 1086.06,785.485 1087,781.5C 1087.11,766.164 1087.11,750.831 1087,735.5C 1087.75,732.316 1089.25,729.649 1091.5,727.5 Z"/></g>
<g><path style="opacity:1" fill="#f5ebe3" d="M 1637.5,718.5 C 1637.2,725.281 1637.87,731.948 1639.5,738.5C 1639,738.833 1638.5,739.167 1638,739.5C 1633.05,738.372 1628.22,737.372 1623.5,736.5C 1627.48,735.979 1631.48,735.646 1635.5,735.5C 1636.17,729.833 1636.83,724.167 1637.5,718.5 Z"/></g>
<g><path style="opacity:1" fill="#c20502" d="M 860.5,748.5 C 865.795,753.062 869.628,758.729 872,765.5C 878.733,784.726 881.067,804.392 879,824.5C 875.736,828.382 871.57,830.549 866.5,831C 858.852,831.998 851.185,832.832 843.5,833.5C 835.864,833.27 832.031,829.27 832,821.5C 831.833,817.833 831.667,814.167 831.5,810.5C 831.248,803.991 832.081,797.658 834,791.5C 834.838,778.515 832.338,766.182 826.5,754.5C 826.624,753.893 826.957,753.56 827.5,753.5C 838.076,748.85 849.076,747.183 860.5,748.5 Z"/></g>
<g><path style="opacity:1" fill="#554439" d="M 218.5,737.5 C 219.49,743.645 219.823,749.978 219.5,756.5C 209.833,756.5 200.167,756.5 190.5,756.5C 190.5,755.833 190.833,755.5 191.5,755.5C 200.5,755.5 209.5,755.5 218.5,755.5C 218.5,749.5 218.5,743.5 218.5,737.5 Z"/></g>
<g><path style="opacity:1" fill="#f3ebe5" d="M 219.5,759.5 C 209.464,759.671 199.464,760.338 189.5,761.5C 190.038,759.883 190.371,758.216 190.5,756.5C 200.167,756.5 209.833,756.5 219.5,756.5C 227.865,756.553 236.198,756.053 244.5,755C 249.085,753.359 253.751,752.359 258.5,752C 253.731,754.162 248.731,755.828 243.5,757C 235.493,757.91 227.493,758.744 219.5,759.5 Z"/></g>
<g><path style="opacity:1" fill="#040202" d="M 219.5,759.5 C 219.5,767.5 219.5,775.5 219.5,783.5C 219.5,787.833 219.5,792.167 219.5,796.5C 215.958,796.187 212.625,796.521 209.5,797.5C 192.787,797.836 176.12,798.836 159.5,800.5C 159.334,795.489 159.501,790.489 160,785.5C 163.453,776.379 169.953,770.879 179.5,769C 180.833,766.667 182.167,764.333 183.5,762C 185.473,761.505 187.473,761.338 189.5,761.5C 199.464,760.338 209.464,759.671 219.5,759.5 Z"/></g>
<g><path style="opacity:1" fill="#030303" d="M 1240.5,768.5 C 1260.08,766.739 1275.58,773.739 1287,789.5C 1295.75,805.294 1295.42,820.961 1286,836.5C 1268.41,858.107 1247.58,861.94 1223.5,848C 1204.2,830.479 1200.7,810.313 1213,787.5C 1220.1,778.046 1229.26,771.712 1240.5,768.5 Z"/></g>
<g><path style="opacity:1" fill="#fd0603" d="M 520.5,772.5 C 530.28,774.398 538.28,779.064 544.5,786.5C 544.16,799.576 542.994,812.576 541,825.5C 536.747,829.146 532.413,832.813 528,836.5C 526.992,843.501 523.159,848.001 516.5,850C 503.086,850.647 490.419,847.814 478.5,841.5C 478.167,840.833 477.833,840.167 477.5,839.5C 478.883,832.906 479.716,826.24 480,819.5C 484.9,809.933 491.9,802.266 501,796.5C 503.288,785.048 509.788,777.048 520.5,772.5 Z"/></g>
<g><path style="opacity:1" fill="#050505" d="M 1460.5,792.5 C 1458.11,795.538 1455.11,797.871 1451.5,799.5C 1448.93,799.594 1447.43,800.928 1447,803.5C 1445.44,810.295 1445.27,816.961 1446.5,823.5C 1446.97,826.745 1448.3,829.579 1450.5,832C 1455.8,832.88 1460.8,832.047 1465.5,829.5C 1462.6,834.572 1459.1,839.239 1455,843.5C 1443.58,851.588 1434.24,861.588 1427,873.5C 1420.82,882.227 1412.82,884.893 1403,881.5C 1395.26,868.552 1392.26,854.552 1394,839.5C 1398.92,829.744 1406.09,822.077 1415.5,816.5C 1417.35,804.436 1422.68,794.27 1431.5,786C 1437.15,781.669 1443.49,780.003 1450.5,781C 1456.19,782.85 1459.52,786.683 1460.5,792.5 Z"/></g>
<g><path style="opacity:1" fill="#795c49" d="M 219.5,783.5 C 220.486,787.97 220.819,792.637 220.5,797.5C 216.833,797.5 213.167,797.5 209.5,797.5C 212.625,796.521 215.958,796.187 219.5,796.5C 219.5,792.167 219.5,787.833 219.5,783.5 Z"/></g>
<g><path style="opacity:1" fill="#080707" d="M 1562.5,800.5 C 1565.04,810.282 1561.54,815.949 1552,817.5C 1549.85,817.342 1548.02,816.508 1546.5,815C 1541.1,815.458 1536.6,817.958 1533,822.5C 1528.65,829.193 1523.82,835.526 1518.5,841.5C 1516.62,843.608 1514.28,844.941 1511.5,845.5C 1501.95,840.06 1498.78,832.06 1502,821.5C 1504.86,815.115 1507.7,808.781 1510.5,802.5C 1522.11,799.486 1533.94,797.486 1546,796.5C 1548.52,797.507 1551.02,798.674 1553.5,800C 1556.48,800.498 1559.48,800.665 1562.5,800.5 Z"/></g>
<g><path style="opacity:1" fill="#050505" d="M 982.5,798.5 C 985.293,800.454 987.959,802.621 990.5,805C 997.884,808.698 1004.88,808.198 1011.5,803.5C 1013.06,819.622 1008.89,833.955 999,846.5C 988.492,854.332 976.659,857.498 963.5,856C 956.572,854.081 953.072,849.581 953,842.5C 961.521,826.839 971.354,812.172 982.5,798.5 Z"/></g>
<g><path style="opacity:1" fill="#986441" d="M 1451.5,799.5 C 1449.84,800.743 1448.67,802.41 1448,804.5C 1446.89,810.787 1446.39,817.12 1446.5,823.5C 1445.27,816.961 1445.44,810.295 1447,803.5C 1447.43,800.928 1448.93,799.594 1451.5,799.5 Z"/></g>
</svg>
