<?xml version="1.0" encoding="UTF-8"?>
<!DOCTYPE svg PUBLIC "-//W3C//DTD SVG 1.1//EN" "http://www.w3.org/Graphics/SVG/1.1/DTD/svg11.dtd">
<svg xmlns="http://www.w3.org/2000/svg" version="1.1" width="609px" height="424px" style="shape-rendering:geometricPrecision; text-rendering:geometricPrecision; image-rendering:optimizeQuality; fill-rule:evenodd; clip-rule:evenodd" xmlns:xlink="http://www.w3.org/1999/xlink">
<g><path style="opacity:1" fill="#fefefe" d="M -0.5,-0.5 C 95.5,-0.5 191.5,-0.5 287.5,-0.5C 282.524,2.31113 278.691,6.31113 276,11.5C 273.876,24.9562 279.376,32.9562 292.5,35.5C 293.167,35.5 293.833,35.5 294.5,35.5C 295.613,36.9464 295.78,38.6131 295,40.5C 291.134,48.8639 286.634,56.8639 281.5,64.5C 270.538,67.7107 259.538,70.7107 248.5,73.5C 246.5,73.5 244.5,73.5 242.5,73.5C 242.952,69.8371 243.452,66.1704 244,62.5C 248.186,61.0492 249.353,58.3826 247.5,54.5C 251.847,37.3422 245.18,30.1756 227.5,33C 223.414,34.9135 221.081,38.0802 220.5,42.5C 218.908,49.6239 218.408,56.9572 219,64.5C 219.637,66.3031 220.803,67.6364 222.5,68.5C 223.48,71.0865 223.813,73.7531 223.5,76.5C 220.088,77.0421 217.088,78.3754 214.5,80.5C 212.345,80.372 210.345,80.872 208.5,82C 199.833,89.3333 191.167,96.6667 182.5,104C 169.552,106.116 156.552,107.449 143.5,108C 140.616,105.952 138.283,103.452 136.5,100.5C 135.614,103.116 136.28,105.449 138.5,107.5C 134.167,108.167 129.833,108.833 125.5,109.5C 128.144,110.396 130.81,111.229 133.5,112C 129.833,112.333 126.167,112.667 122.5,113C 123.623,114.044 124.956,114.71 126.5,115C 124.114,115.284 123.448,116.284 124.5,118C 127.167,118.333 129.833,118.667 132.5,119C 130.423,119.192 128.423,119.692 126.5,120.5C 128,120.833 129.5,121.167 131,121.5C 149.487,120.726 167.987,120.226 186.5,120C 188.246,119.529 189.913,118.862 191.5,118C 196.686,113.912 202.02,110.079 207.5,106.5C 206.236,122.984 206.236,139.317 207.5,155.5C 215.699,173.568 224.199,191.568 233,209.5C 233.77,210.598 234.603,210.598 235.5,209.5C 236.496,209.586 237.329,209.252 238,208.5C 240.392,215.028 243.892,220.861 248.5,226C 250.956,227.711 253.623,229.044 256.5,230C 277.875,231.837 299.208,234.004 320.5,236.5C 323.287,237.477 326.287,237.81 329.5,237.5C 332.147,238.073 334.813,238.74 337.5,239.5C 339.632,244.369 341.299,249.369 342.5,254.5C 343.122,255.627 343.955,256.627 345,257.5C 346.452,247.17 347.952,236.837 349.5,226.5C 349.469,223.825 348.136,222.491 345.5,222.5C 345.517,216.42 346.183,210.42 347.5,204.5C 346.5,204.5 345.5,204.5 344.5,204.5C 336.556,203.075 328.556,202.075 320.5,201.5C 306.337,197.99 292.004,194.656 277.5,191.5C 276.237,189.971 275.237,188.305 274.5,186.5C 278.39,184.305 280.39,181.305 280.5,177.5C 273.784,169.95 266.618,162.95 259,156.5C 258.502,153.183 258.335,149.85 258.5,146.5C 254.098,140.765 250.098,134.765 246.5,128.5C 249.506,115.81 252.506,103.144 255.5,90.5C 265.497,87.3339 275.497,84.1672 285.5,81C 288.295,79.2068 290.795,77.0402 293,74.5C 300.54,57.9662 306.374,40.9662 310.5,23.5C 313.503,11.5054 309.17,3.50538 297.5,-0.5C 401.167,-0.5 504.833,-0.5 608.5,-0.5C 608.5,140.833 608.5,282.167 608.5,423.5C 405.5,423.5 202.5,423.5 -0.5,423.5C -0.5,282.167 -0.5,140.833 -0.5,-0.5 Z"/></g>
<g><path style="opacity:1" fill="#32d066" d="M 287.5,-0.5 C 290.833,-0.5 294.167,-0.5 297.5,-0.5C 309.17,3.50538 313.503,11.5054 310.5,23.5C 309.504,23.4142 308.671,23.7476 308,24.5C 307.8,22.6803 306.966,21.347 305.5,20.5C 301.841,21.3146 299.174,23.4813 297.5,27C 291.963,27.4999 290.296,30.3332 292.5,35.5C 279.376,32.9562 273.876,24.9562 276,11.5C 278.691,6.31113 282.524,2.31113 287.5,-0.5 Z"/></g>
<g><path style="opacity:1" fill="#36a755" d="M 305.5,20.5 C 306.167,22.8194 306.334,25.1527 306,27.5C 305.667,27.8333 305.333,28.1667 305,28.5C 304.808,26.4233 304.308,24.4233 303.5,22.5C 302.675,26.1224 302.175,29.789 302,33.5C 300.612,34.5536 299.112,34.7203 297.5,34C 293.736,27.8135 292.736,28.3135 294.5,35.5C 293.833,35.5 293.167,35.5 292.5,35.5C 290.296,30.3332 291.963,27.4999 297.5,27C 299.174,23.4813 301.841,21.3146 305.5,20.5 Z"/></g>
<g><path style="opacity:1" fill="#b78b78" d="M 305.5,20.5 C 306.966,21.347 307.8,22.6803 308,24.5C 308.671,23.7476 309.504,23.4142 310.5,23.5C 306.374,40.9662 300.54,57.9662 293,74.5C 290.795,77.0402 288.295,79.2068 285.5,81C 275.497,84.1672 265.497,87.3339 255.5,90.5C 254.148,84.4483 251.815,78.7817 248.5,73.5C 259.538,70.7107 270.538,67.7107 281.5,64.5C 286.634,56.8639 291.134,48.8639 295,40.5C 295.78,38.6131 295.613,36.9464 294.5,35.5C 292.736,28.3135 293.736,27.8135 297.5,34C 299.112,34.7203 300.612,34.5536 302,33.5C 302.175,29.789 302.675,26.1224 303.5,22.5C 304.308,24.4233 304.808,26.4233 305,28.5C 305.333,28.1667 305.667,27.8333 306,27.5C 306.334,25.1527 306.167,22.8194 305.5,20.5 Z"/></g>
<g><path style="opacity:1" fill="#333d42" d="M 247.5,54.5 C 245.362,54.703 243.695,55.703 242.5,57.5C 242.167,56.5 241.833,55.5 241.5,54.5C 243.169,50.6479 243.669,46.6479 243,42.5C 242.215,40.714 241.049,39.214 239.5,38C 235.089,37.9833 230.923,37.1499 227,35.5C 223.208,38.0765 221.208,41.7431 221,46.5C 220.51,45.2068 220.343,43.8734 220.5,42.5C 221.081,38.0802 223.414,34.9135 227.5,33C 245.18,30.1756 251.847,37.3422 247.5,54.5 Z"/></g>
<g><path style="opacity:1" fill="#b08473" d="M 247.5,54.5 C 249.353,58.3826 248.186,61.0492 244,62.5C 243.452,66.1704 242.952,69.8371 242.5,73.5C 236.448,74.1794 230.448,75.1794 224.5,76.5C 224.167,76.5 223.833,76.5 223.5,76.5C 223.813,73.7531 223.48,71.0865 222.5,68.5C 220.803,67.6364 219.637,66.3031 219,64.5C 218.408,56.9572 218.908,49.6239 220.5,42.5C 220.343,43.8734 220.51,45.2068 221,46.5C 221.208,41.7431 223.208,38.0765 227,35.5C 230.923,37.1499 235.089,37.9833 239.5,38C 241.049,39.214 242.215,40.714 243,42.5C 243.669,46.6479 243.169,50.6479 241.5,54.5C 241.833,55.5 242.167,56.5 242.5,57.5C 243.695,55.703 245.362,54.703 247.5,54.5 Z"/></g>
<g><path style="opacity:1" fill="#27ce60" d="M 242.5,73.5 C 244.5,73.5 246.5,73.5 248.5,73.5C 251.815,78.7817 254.148,84.4483 255.5,90.5C 252.506,103.144 249.506,115.81 246.5,128.5C 250.098,134.765 254.098,140.765 258.5,146.5C 256.167,147.167 253.833,147.833 251.5,148.5C 237.543,154.923 222.876,157.257 207.5,155.5C 207.369,154.761 207.536,154.094 208,153.5C 221.999,155.703 235.499,153.87 248.5,148C 242.759,148.684 237.093,150.017 231.5,152C 223.507,152.5 215.507,152.666 207.5,152.5C 207.333,139.163 207.5,125.829 208,112.5C 209.82,115.203 212.32,116.036 215.5,115C 219,112.833 221.833,110 224,106.5C 226.121,101.141 227.621,95.6411 228.5,90C 228.89,84.7801 226.89,80.7801 222.5,78C 223.416,77.7216 224.082,77.2216 224.5,76.5C 230.448,75.1794 236.448,74.1794 242.5,73.5 Z"/></g>
<g><path style="opacity:1" fill="#48d172" d="M 223.5,76.5 C 223.833,76.5 224.167,76.5 224.5,76.5C 224.082,77.2216 223.416,77.7216 222.5,78C 226.89,80.7801 228.89,84.7801 228.5,90C 227.621,95.6411 226.121,101.141 224,106.5C 221.833,110 219,112.833 215.5,115C 212.32,116.036 209.82,115.203 208,112.5C 207.5,125.829 207.333,139.163 207.5,152.5C 215.507,152.666 223.507,152.5 231.5,152C 237.093,150.017 242.759,148.684 248.5,148C 235.499,153.87 221.999,155.703 208,153.5C 207.536,154.094 207.369,154.761 207.5,155.5C 206.236,139.317 206.236,122.984 207.5,106.5C 207.811,105.522 208.478,104.855 209.5,104.5C 210.308,106.423 210.808,108.423 211,110.5C 212.049,111.517 213.216,111.684 214.5,111C 221.469,102.95 223.969,93.7837 222,83.5C 219.874,81.6234 217.374,80.6234 214.5,80.5C 217.088,78.3754 220.088,77.0421 223.5,76.5 Z"/></g>
<g><path style="opacity:1" fill="#b88b79" d="M 214.5,80.5 C 217.374,80.6234 219.874,81.6234 222,83.5C 223.969,93.7837 221.469,102.95 214.5,111C 213.216,111.684 212.049,111.517 211,110.5C 210.808,108.423 210.308,106.423 209.5,104.5C 208.478,104.855 207.811,105.522 207.5,106.5C 202.02,110.079 196.686,113.912 191.5,118C 189.913,118.862 188.246,119.529 186.5,120C 167.987,120.226 149.487,120.726 131,121.5C 129.5,121.167 128,120.833 126.5,120.5C 128.423,119.692 130.423,119.192 132.5,119C 129.833,118.667 127.167,118.333 124.5,118C 123.448,116.284 124.114,115.284 126.5,115C 124.956,114.71 123.623,114.044 122.5,113C 126.167,112.667 129.833,112.333 133.5,112C 130.81,111.229 128.144,110.396 125.5,109.5C 129.833,108.833 134.167,108.167 138.5,107.5C 136.28,105.449 135.614,103.116 136.5,100.5C 138.283,103.452 140.616,105.952 143.5,108C 156.552,107.449 169.552,106.116 182.5,104C 191.167,96.6667 199.833,89.3333 208.5,82C 210.345,80.872 212.345,80.372 214.5,80.5 Z"/></g>
<g><path style="opacity:1" fill="#bef0cd" d="M 246.5,102.5 C 247.5,102.5 248.5,102.5 249.5,102.5C 249.523,104.6 248.856,106.433 247.5,108C 247.645,108.772 247.978,109.439 248.5,110C 246.959,111.579 245.792,113.413 245,115.5C 244.754,112.066 245.254,108.733 246.5,105.5C 245.325,105.719 244.325,105.386 243.5,104.5C 244.602,103.824 245.602,103.158 246.5,102.5 Z"/></g>
<g><path style="opacity:1" fill="#b0edc3" d="M 236.5,106.5 C 237.919,105.549 239.585,105.216 241.5,105.5C 241.965,109.792 241.132,113.792 239,117.5C 234.863,119.494 233.03,118.16 233.5,113.5C 233.63,111.625 233.963,109.792 234.5,108C 234.836,106.97 235.503,106.47 236.5,106.5 Z"/></g>
<g><path style="opacity:1" fill="#2dd065" d="M 236.5,106.5 C 237.5,106.5 238.5,106.5 239.5,106.5C 239.663,108.857 239.497,111.19 239,113.5C 238.804,115.286 237.971,116.619 236.5,117.5C 235.317,113.825 235.317,110.159 236.5,106.5 Z"/></g>
<g><path style="opacity:1" fill="#1da34c" d="M 246.5,114.5 C 246.911,122.189 245.078,129.523 241,136.5C 237.974,139.864 234.474,140.364 230.5,138C 229.424,136.274 229.257,134.441 230,132.5C 233.533,131.492 236.7,129.825 239.5,127.5C 240.769,123.946 242.769,120.946 245.5,118.5C 246.429,117.311 246.762,115.978 246.5,114.5 Z"/></g>
<g><path style="opacity:1" fill="#2f393e" d="M 496.5,140.5 C 488.954,140.564 481.621,139.564 474.5,137.5C 474.662,139.527 474.495,141.527 474,143.5C 472.323,145.525 471.323,147.859 471,150.5C 470.29,151.973 469.124,152.64 467.5,152.5C 467.768,150.901 467.434,149.568 466.5,148.5C 466.091,144.152 465.924,139.819 466,135.5C 470.081,133.422 473.581,130.589 476.5,127C 484.246,127.509 491.913,128.676 499.5,130.5C 499.664,133.187 499.497,135.854 499,138.5C 498.292,139.381 497.458,140.047 496.5,140.5 Z"/></g>
<g><path style="opacity:1" fill="#f8b99c" d="M 496.5,140.5 C 496.914,149.582 496.414,158.582 495,167.5C 492.304,169.417 489.804,171.417 487.5,173.5C 487.5,174.167 487.5,174.833 487.5,175.5C 486.517,187.073 481.017,190.073 471,184.5C 469.092,181.794 468.259,178.794 468.5,175.5C 468.5,169.167 468.5,162.833 468.5,156.5C 464.024,156.178 462.524,153.844 464,149.5C 464.671,148.748 465.504,148.414 466.5,148.5C 467.434,149.568 467.768,150.901 467.5,152.5C 469.124,152.64 470.29,151.973 471,150.5C 471.323,147.859 472.323,145.525 474,143.5C 474.495,141.527 474.662,139.527 474.5,137.5C 481.621,139.564 488.954,140.564 496.5,140.5 Z"/></g>
<g><path style="opacity:1" fill="#f7b898" d="M 118.5,160.5 C 119.614,163.177 119.614,165.844 118.5,168.5C 117.264,169.246 115.93,169.579 114.5,169.5C 114.5,171.167 114.5,172.833 114.5,174.5C 115.5,174.5 116.5,174.5 117.5,174.5C 116.791,175.404 115.791,175.737 114.5,175.5C 115.306,181.978 113.639,187.645 109.5,192.5C 105.167,190.333 100.833,188.167 96.5,186C 95.9152,184.698 95.2485,183.531 94.5,182.5C 95.6016,180.908 94.935,180.075 92.5,180C 90.6217,178.457 89.1217,176.624 88,174.5C 87.5008,169.845 87.3342,165.179 87.5,160.5C 88.4767,157.713 88.81,154.713 88.5,151.5C 93.5354,151.879 97.5354,150.046 100.5,146C 103.916,145.107 107.083,145.607 110,147.5C 110.338,152.547 111.005,157.547 112,162.5C 112.414,162.957 112.914,163.291 113.5,163.5C 115.029,162.237 116.695,161.237 118.5,160.5 Z"/></g>
<g><path style="opacity:1" fill="#1f7f3e" d="M 258.5,146.5 C 258.335,149.85 258.502,153.183 259,156.5C 266.618,162.95 273.784,169.95 280.5,177.5C 277.55,179.115 274.884,181.115 272.5,183.5C 269.08,184.357 266.746,186.357 265.5,189.5C 265.167,189.5 264.833,189.5 264.5,189.5C 264.66,187.801 264.494,186.134 264,184.5C 260.13,176.538 256.463,168.538 253,160.5C 251.844,156.582 251.344,152.582 251.5,148.5C 253.833,147.833 256.167,147.167 258.5,146.5 Z"/></g>
<g><path style="opacity:1" fill="#20a64e" d="M 251.5,148.5 C 251.344,152.582 251.844,156.582 253,160.5C 256.463,168.538 260.13,176.538 264,184.5C 264.494,186.134 264.66,187.801 264.5,189.5C 262.447,189.402 260.78,190.069 259.5,191.5C 250.628,196.377 242.628,202.377 235.5,209.5C 234.603,210.598 233.77,210.598 233,209.5C 224.199,191.568 215.699,173.568 207.5,155.5C 222.876,157.257 237.543,154.923 251.5,148.5 Z"/></g>
<g><path style="opacity:1" fill="#323b40" d="M 118.5,160.5 C 116.695,161.237 115.029,162.237 113.5,163.5C 112.914,163.291 112.414,162.957 112,162.5C 111.005,157.547 110.338,152.547 110,147.5C 107.083,145.607 103.916,145.107 100.5,146C 97.5354,150.046 93.5354,151.879 88.5,151.5C 88.81,154.713 88.4767,157.713 87.5,160.5C 87.6621,158.473 87.4955,156.473 87,154.5C 84.9824,152.65 83.1491,150.65 81.5,148.5C 86.3217,144.844 90.9884,141.011 95.5,137C 99.5,136.333 103.5,136.333 107.5,137C 111.232,140.195 115.399,142.695 120,144.5C 120.96,147.633 121.793,150.8 122.5,154C 121.924,155.714 120.757,156.881 119,157.5C 118.517,158.448 118.351,159.448 118.5,160.5 Z"/></g>
<g><path style="opacity:1" fill="#ffc0a0" d="M 522.5,206.5 C 522.5,200.5 522.5,194.5 522.5,188.5C 526.182,188.665 529.848,188.499 533.5,188C 545.167,183.167 556.833,178.333 568.5,173.5C 569.333,172.5 570.167,171.5 571,170.5C 571.898,160.05 573.231,160.05 575,170.5C 577.738,168.093 580.738,166.093 584,164.5C 584.5,164.667 585,164.833 585.5,165C 577.77,172.823 578.437,173.323 587.5,166.5C 588.521,167.002 588.688,167.668 588,168.5C 586.833,169.667 585.667,170.833 584.5,172C 586.345,171.217 588.345,170.884 590.5,171C 588.5,172.667 586.5,174.333 584.5,176C 585.672,176.353 586.838,176.187 588,175.5C 589.722,175.611 589.888,176.111 588.5,177C 570.224,186.138 552.224,195.805 534.5,206C 530.514,206.499 526.514,206.666 522.5,206.5 Z"/></g>
<g><path style="opacity:1" fill="#b061e8" d="M 487.5,173.5 C 483.863,173.513 480.863,172.18 478.5,169.5C 478.833,169.167 479.167,168.833 479.5,168.5C 482.553,169.816 485.219,171.483 487.5,173.5 Z"/></g>
<g><path style="opacity:1" fill="#ee5643" d="M 117.5,174.5 C 121.605,174.234 125.605,174.734 129.5,176C 132.387,180.284 135.387,184.451 138.5,188.5C 139.554,194.301 137.887,198.968 133.5,202.5C 132.5,202.5 131.5,202.5 130.5,202.5C 130.333,213.505 130.5,224.505 131,235.5C 132.895,242.944 135.061,250.278 137.5,257.5C 120.498,259.584 103.498,261.75 86.5,264C 84.3909,264.907 83.0576,266.407 82.5,268.5C 83.5675,252.16 83.5675,235.827 82.5,219.5C 82.6416,211.719 80.4749,204.719 76,198.5C 76.6425,200.807 77.6425,203.141 79,205.5C 79.9977,210.156 80.831,214.822 81.5,219.5C 80.1667,220.5 78.8333,221.5 77.5,222.5C 71.8832,220.358 66.5499,217.692 61.5,214.5C 65.7759,207.464 70.4426,200.631 75.5,194C 81.8611,190.155 88.1945,186.322 94.5,182.5C 95.2485,183.531 95.9152,184.698 96.5,186C 100.833,188.167 105.167,190.333 109.5,192.5C 113.639,187.645 115.306,181.978 114.5,175.5C 115.791,175.737 116.791,175.404 117.5,174.5 Z"/></g>
<g><path style="opacity:1" fill="#9648fd" d="M 460.5,176.5 C 462.5,176.5 464.5,176.5 466.5,176.5C 467.172,186.667 472.505,190.833 482.5,189C 484.333,187.167 486.167,185.333 488,183.5C 487.97,180.639 488.803,178.305 490.5,176.5C 494.6,177.192 498.6,178.192 502.5,179.5C 502.173,189.015 502.506,198.348 503.5,207.5C 503.194,210.385 503.527,213.052 504.5,215.5C 504.724,227.522 505.391,239.522 506.5,251.5C 506.456,254.585 506.122,257.585 505.5,260.5C 503.901,260.232 502.568,260.566 501.5,261.5C 489.896,264.928 478.229,265.262 466.5,262.5C 463.095,261.752 459.762,260.752 456.5,259.5C 456.746,247.803 456.413,236.136 455.5,224.5C 456.94,222.821 457.94,220.821 458.5,218.5C 459.412,212.772 459.746,207.106 459.5,201.5C 459.333,201.167 459.167,200.833 459,200.5C 456.462,203.512 453.629,206.179 450.5,208.5C 443.238,211.715 436.071,215.049 429,218.5C 427.401,217.929 426.234,216.929 425.5,215.5C 424.087,212.339 422.42,209.339 420.5,206.5C 433.439,199.695 446.106,192.362 458.5,184.5C 460.138,188.97 460.971,193.637 461,198.5C 463.949,190.19 462.116,183.19 455.5,177.5C 457.042,176.699 458.708,176.366 460.5,176.5 Z"/></g>
<g><path style="opacity:1" fill="#9e56fc" d="M 455.5,177.5 C 462.116,183.19 463.949,190.19 461,198.5C 460.971,193.637 460.138,188.97 458.5,184.5C 446.106,192.362 433.439,199.695 420.5,206.5C 419.407,204.651 418.074,202.984 416.5,201.5C 416.414,200.504 416.748,199.671 417.5,199C 428.833,192 440.167,185 451.5,178C 452.793,177.51 454.127,177.343 455.5,177.5 Z"/></g>
<g><path style="opacity:1" fill="#374345" d="M 280.5,177.5 C 280.39,181.305 278.39,184.305 274.5,186.5C 274.068,185.29 273.401,184.29 272.5,183.5C 274.884,181.115 277.55,179.115 280.5,177.5 Z"/></g>
<g><path style="opacity:1" fill="#9153d6" d="M 460.5,176.5 C 462.948,175.527 465.615,175.194 468.5,175.5C 468.259,178.794 469.092,181.794 471,184.5C 481.017,190.073 486.517,187.073 487.5,175.5C 488.791,175.263 489.791,175.596 490.5,176.5C 488.803,178.305 487.97,180.639 488,183.5C 486.167,185.333 484.333,187.167 482.5,189C 472.505,190.833 467.172,186.667 466.5,176.5C 464.5,176.5 462.5,176.5 460.5,176.5 Z"/></g>
<g><path style="opacity:1" fill="#aa6651" d="M 272.5,183.5 C 273.401,184.29 274.068,185.29 274.5,186.5C 275.237,188.305 276.237,189.971 277.5,191.5C 292.004,194.656 306.337,197.99 320.5,201.5C 319.771,206.13 319.437,210.797 319.5,215.5C 318.833,215.5 318.5,215.833 318.5,216.5C 315.833,216.5 313.167,216.5 310.5,216.5C 295.857,214.507 281.19,211.841 266.5,208.5C 264.84,203.844 263.174,199.177 261.5,194.5C 263.587,193.415 264.92,191.749 265.5,189.5C 266.746,186.357 269.08,184.357 272.5,183.5 Z"/></g>
<g><path style="opacity:1" fill="#9748fe" d="M 521.5,191.5 C 521.5,196.833 521.5,202.167 521.5,207.5C 520.5,207.5 519.5,207.5 518.5,207.5C 515.833,207.5 513.167,207.5 510.5,207.5C 508.735,206.539 506.735,206.205 504.5,206.5C 504.32,198.825 503.986,191.158 503.5,183.5C 505.308,183.491 506.975,183.991 508.5,185C 505.833,185.667 505.833,186.333 508.5,187C 512.882,188.567 517.216,190.067 521.5,191.5 Z"/></g>
<g><path style="opacity:1" fill="#9d5af4" d="M 502.5,179.5 C 508.91,181.637 515.244,183.97 521.5,186.5C 521.5,188.167 521.5,189.833 521.5,191.5C 517.216,190.067 512.882,188.567 508.5,187C 505.833,186.333 505.833,185.667 508.5,185C 506.975,183.991 505.308,183.491 503.5,183.5C 503.986,191.158 504.32,198.825 504.5,206.5C 503.833,206.5 503.5,206.833 503.5,207.5C 502.506,198.348 502.173,189.015 502.5,179.5 Z"/></g>
<g><path style="opacity:1" fill="#e5abc7" d="M 521.5,186.5 C 522.338,186.842 522.672,187.508 522.5,188.5C 522.5,194.5 522.5,200.5 522.5,206.5C 522.38,207.586 521.713,208.253 520.5,208.5C 519.584,208.457 518.917,208.124 518.5,207.5C 519.5,207.5 520.5,207.5 521.5,207.5C 521.5,202.167 521.5,196.833 521.5,191.5C 521.5,189.833 521.5,188.167 521.5,186.5 Z"/></g>
<g><path style="opacity:1" fill="#323a3b" d="M 264.5,189.5 C 264.833,189.5 265.167,189.5 265.5,189.5C 264.92,191.749 263.587,193.415 261.5,194.5C 260.599,193.71 259.932,192.71 259.5,191.5C 260.78,190.069 262.447,189.402 264.5,189.5 Z"/></g>
<g><path style="opacity:1" fill="#fec1a1" d="M 138.5,188.5 C 142.113,194.636 146.78,200.136 152.5,205C 157.583,206.376 162.25,208.543 166.5,211.5C 166,212.5 165.5,213.5 165,214.5C 164.667,214.167 164.333,213.833 164,213.5C 163.667,214.833 163.333,216.167 163,217.5C 162,215.833 161,214.167 160,212.5C 159.316,213.784 159.483,214.951 160.5,216C 160.167,216.167 159.833,216.333 159.5,216.5C 158.52,215.019 157.353,213.685 156,212.5C 155.667,213.833 155.333,215.167 155,216.5C 149.301,209.724 142.135,205.058 133.5,202.5C 137.887,198.968 139.554,194.301 138.5,188.5 Z"/></g>
<g><path style="opacity:1" fill="#b78977" d="M 259.5,191.5 C 259.932,192.71 260.599,193.71 261.5,194.5C 263.174,199.177 264.84,203.844 266.5,208.5C 281.19,211.841 295.857,214.507 310.5,216.5C 309.761,216.369 309.094,216.536 308.5,217C 311.726,218.199 315.059,218.699 318.5,218.5C 319.209,219.404 320.209,219.737 321.5,219.5C 320.866,225.145 320.532,230.811 320.5,236.5C 299.208,234.004 277.875,231.837 256.5,230C 253.623,229.044 250.956,227.711 248.5,226C 243.892,220.861 240.392,215.028 238,208.5C 237.329,209.252 236.496,209.586 235.5,209.5C 242.628,202.377 250.628,196.377 259.5,191.5 Z"/></g>
<g><path style="opacity:1" fill="#2ecd62" d="M 320.5,201.5 C 328.556,202.075 336.556,203.075 344.5,204.5C 344.498,209.021 344.164,213.521 343.5,218C 343.569,219.986 344.235,221.486 345.5,222.5C 345.971,231.266 345.637,240.099 344.5,249C 344.453,251.295 343.787,253.129 342.5,254.5C 341.299,249.369 339.632,244.369 337.5,239.5C 334.813,238.74 332.147,238.073 329.5,237.5C 331.072,235.133 330.739,233.133 328.5,231.5C 327.571,232.689 327.238,234.022 327.5,235.5C 325.194,235.993 322.861,236.326 320.5,236.5C 320.532,230.811 320.866,225.145 321.5,219.5C 325.511,220.035 329.511,220.702 333.5,221.5C 334.5,221.167 335.5,220.833 336.5,220.5C 336.291,219.914 335.957,219.414 335.5,219C 333.19,218.503 330.857,218.337 328.5,218.5C 328.949,216.023 328.283,214.023 326.5,212.5C 325.269,213.651 325.269,214.817 326.5,216C 324.863,216.601 323.197,217.101 321.5,217.5C 320.287,217.253 319.62,216.586 319.5,215.5C 319.437,210.797 319.771,206.13 320.5,201.5 Z"/></g>
<g><path style="opacity:1" fill="#fec0a1" d="M 416.5,201.5 C 418.074,202.984 419.407,204.651 420.5,206.5C 422.42,209.339 424.087,212.339 425.5,215.5C 423.107,217.486 420.94,219.819 419,222.5C 414.399,231.425 409.399,240.092 404,248.5C 404.221,252.454 405.721,255.954 408.5,259C 407.5,259.667 406.5,259.667 405.5,259C 404.646,257.978 403.646,257.145 402.5,256.5C 401.858,260.059 400.691,263.393 399,266.5C 398.818,263.774 398.318,261.107 397.5,258.5C 396.909,261.64 396.076,264.64 395,267.5C 394.085,266.672 393.419,265.672 393,264.5C 391.844,265.993 391.01,265.826 390.5,264C 391.459,261.88 391.626,259.713 391,257.5C 390.529,259.246 389.862,260.913 389,262.5C 388.542,259.442 388.876,256.442 390,253.5C 395.592,239.975 400.925,226.308 406,212.5C 409.079,208.258 412.579,204.591 416.5,201.5 Z"/></g>
<g><path style="opacity:1" fill="#b64b3f" d="M 82.5,219.5 C 82.1667,219.5 81.8333,219.5 81.5,219.5C 80.831,214.822 79.9977,210.156 79,205.5C 77.6425,203.141 76.6425,200.807 76,198.5C 80.4749,204.719 82.6416,211.719 82.5,219.5 Z"/></g>
<g><path style="opacity:1" fill="#9eeab8" d="M 344.5,204.5 C 345.5,204.5 346.5,204.5 347.5,204.5C 346.183,210.42 345.517,216.42 345.5,222.5C 344.235,221.486 343.569,219.986 343.5,218C 344.164,213.521 344.498,209.021 344.5,204.5 Z"/></g>
<g><path style="opacity:1" fill="#763bc4" d="M 455.5,224.5 C 454.133,219.679 452.966,214.679 452,209.5C 451.617,208.944 451.117,208.611 450.5,208.5C 453.629,206.179 456.462,203.512 459,200.5C 459.167,200.833 459.333,201.167 459.5,201.5C 459.746,207.106 459.412,212.772 458.5,218.5C 457.94,220.821 456.94,222.821 455.5,224.5 Z"/></g>
<g><path style="opacity:1" fill="#f2eafa" d="M 471.5,209.5 C 473.833,209.5 476.167,209.5 478.5,209.5C 478.5,215.167 478.5,220.833 478.5,226.5C 477.5,226.5 476.5,226.5 475.5,226.5C 474.514,222.03 474.181,217.363 474.5,212.5C 473.5,212.5 472.5,212.5 471.5,212.5C 471.5,211.5 471.5,210.5 471.5,209.5 Z"/></g>
<g><path style="opacity:1" fill="#d2b1fb" d="M 471.5,209.5 C 473.948,208.527 476.615,208.194 479.5,208.5C 479.5,214.833 479.5,221.167 479.5,227.5C 477.901,227.768 476.568,227.434 475.5,226.5C 476.5,226.5 477.5,226.5 478.5,226.5C 478.5,220.833 478.5,215.167 478.5,209.5C 476.167,209.5 473.833,209.5 471.5,209.5 Z"/></g>
<g><path style="opacity:1" fill="#aa87dc" d="M 504.5,206.5 C 506.735,206.205 508.735,206.539 510.5,207.5C 508.5,207.5 506.5,207.5 504.5,207.5C 504.5,210.167 504.5,212.833 504.5,215.5C 503.527,213.052 503.194,210.385 503.5,207.5C 503.5,206.833 503.833,206.5 504.5,206.5 Z"/></g>
<g><path style="opacity:1" fill="#f0e7fa" d="M 487.5,208.5 C 490.807,208.063 493.807,208.73 496.5,210.5C 496.291,211.086 495.957,211.586 495.5,212C 493.167,212.333 490.833,212.667 488.5,213C 486.859,216.435 487.693,217.268 491,215.5C 496.205,216.308 497.872,219.308 496,224.5C 490.785,229.019 486.451,228.353 483,222.5C 482.333,219.5 482.333,216.5 483,213.5C 484.707,211.963 486.207,210.296 487.5,208.5 Z"/></g>
<g><path style="opacity:1" fill="#fec09f" d="M 61.5,214.5 C 66.5499,217.692 71.8832,220.358 77.5,222.5C 71.9769,227.842 67.1435,233.842 63,240.5C 55.6352,247.53 48.6352,254.864 42,262.5C 41.6543,265.576 40.9876,268.576 40,271.5C 37.5946,273.403 35.7612,275.736 34.5,278.5C 33.5754,279.562 32.5754,279.562 31.5,278.5C 30.6782,276.45 29.6782,276.783 28.5,279.5C 26.8763,281.137 25.8763,280.803 25.5,278.5C 25.8868,276.726 26.5535,275.059 27.5,273.5C 26.675,272.614 25.675,272.281 24.5,272.5C 24.7259,267.416 27.2259,263.749 32,261.5C 36.5226,254.455 40.5226,247.122 44,239.5C 46.9542,234.61 50.6208,230.277 55,226.5C 57.8265,222.845 59.9932,218.845 61.5,214.5 Z"/></g>
<g><path style="opacity:1" fill="#eee1dd" d="M 310.5,216.5 C 313.167,216.5 315.833,216.5 318.5,216.5C 318.5,217.167 318.5,217.833 318.5,218.5C 315.059,218.699 311.726,218.199 308.5,217C 309.094,216.536 309.761,216.369 310.5,216.5 Z"/></g>
<g><path style="opacity:1" fill="#5aaf76" d="M 328.5,218.5 C 325.167,218.5 321.833,218.5 318.5,218.5C 318.5,217.833 318.5,217.167 318.5,216.5C 318.5,215.833 318.833,215.5 319.5,215.5C 319.62,216.586 320.287,217.253 321.5,217.5C 323.197,217.101 324.863,216.601 326.5,216C 325.269,214.817 325.269,213.651 326.5,212.5C 328.283,214.023 328.949,216.023 328.5,218.5 Z"/></g>
<g><path style="opacity:1" fill="#d4f0de" d="M 318.5,218.5 C 321.833,218.5 325.167,218.5 328.5,218.5C 330.857,218.337 333.19,218.503 335.5,219C 335.957,219.414 336.291,219.914 336.5,220.5C 335.5,220.833 334.5,221.167 333.5,221.5C 329.511,220.702 325.511,220.035 321.5,219.5C 320.209,219.737 319.209,219.404 318.5,218.5 Z"/></g>
<g><path style="opacity:1" fill="#a25afe" d="M 488.5,218.5 C 492.35,218.701 493.35,220.534 491.5,224C 487.537,224.118 486.537,222.284 488.5,218.5 Z"/></g>
<g><path style="opacity:1" fill="#7839cb" d="M 496.5,226.5 C 497.643,229.068 497.476,231.735 496,234.5C 491.78,244.012 484.614,248.512 474.5,248C 468.909,244.721 468.242,240.721 472.5,236C 479.233,237.596 485.566,236.596 491.5,233C 493.79,231.223 495.457,229.056 496.5,226.5 Z"/></g>
<g><path style="opacity:1" fill="#399b5d" d="M 329.5,237.5 C 326.287,237.81 323.287,237.477 320.5,236.5C 322.861,236.326 325.194,235.993 327.5,235.5C 327.238,234.022 327.571,232.689 328.5,231.5C 330.739,233.133 331.072,235.133 329.5,237.5 Z"/></g>
<g><path style="opacity:1" fill="#b03e30" d="M 100.5,242.5 C 100.56,241.957 100.893,241.624 101.5,241.5C 108.804,246.213 116.804,249.046 125.5,250C 115.882,252.211 107.548,249.711 100.5,242.5 Z"/></g>
<g><path style="opacity:1" fill="#97e8b2" d="M 345.5,222.5 C 348.136,222.491 349.469,223.825 349.5,226.5C 347.952,236.837 346.452,247.17 345,257.5C 343.955,256.627 343.122,255.627 342.5,254.5C 343.787,253.129 344.453,251.295 344.5,249C 345.637,240.099 345.971,231.266 345.5,222.5 Z"/></g>
<g><path style="opacity:1" fill="#2b353b" d="M 137.5,257.5 C 141.869,257.771 144.035,260.105 144,264.5C 148.852,269.173 152.686,274.506 155.5,280.5C 147.985,283.184 141.485,287.517 136,293.5C 135.517,294.448 135.351,295.448 135.5,296.5C 128.238,292.853 121.572,288.187 115.5,282.5C 114.833,287.833 114.167,293.167 113.5,298.5C 111.925,299.456 110.258,300.123 108.5,300.5C 109.186,296.713 108.186,293.546 105.5,291C 100.931,287.969 95.9308,286.969 90.5,288C 86.0186,290.061 84.3519,293.561 85.5,298.5C 84.8826,298.389 84.3826,298.056 84,297.5C 82.9721,287.859 82.4721,278.192 82.5,268.5C 83.0576,266.407 84.3909,264.907 86.5,264C 103.498,261.75 120.498,259.584 137.5,257.5 Z"/></g>
<g><path style="opacity:1" fill="#374248" d="M 456.5,259.5 C 459.762,260.752 463.095,261.752 466.5,262.5C 457.272,274.736 447.272,286.403 436.5,297.5C 435.167,296.167 433.833,294.833 432.5,293.5C 432.351,292.448 432.517,291.448 433,290.5C 441.328,280.496 449.161,270.162 456.5,259.5 Z"/></g>
<g><path style="opacity:1" fill="#273339" d="M 501.5,261.5 C 502.978,261.238 504.311,261.571 505.5,262.5C 513.856,272.519 522.19,282.519 530.5,292.5C 525.029,298.643 518.695,303.643 511.5,307.5C 510.127,307.657 508.793,307.49 507.5,307C 498.356,300.023 489.356,292.857 480.5,285.5C 472.64,293.194 465.306,301.36 458.5,310C 455.314,310.596 452.314,310.096 449.5,308.5C 446.194,307.18 443.194,305.347 440.5,303C 438.536,301.549 437.203,299.716 436.5,297.5C 447.272,286.403 457.272,274.736 466.5,262.5C 478.229,265.262 489.896,264.928 501.5,261.5 Z"/></g>
<g><path style="opacity:1" fill="#984bfd" d="M 381.5,280.5 C 390.838,284.503 400.171,288.503 409.5,292.5C 408.051,297.464 405.885,302.131 403,306.5C 402.329,307.252 401.496,307.586 400.5,307.5C 391.833,302.5 383.167,297.5 374.5,292.5C 375.305,287.55 377.638,283.55 381.5,280.5 Z"/></g>
<g><path style="opacity:1" fill="#fdbe9d" d="M 155.5,280.5 C 160.645,288.777 165.811,297.111 171,305.5C 172.92,308.838 174.42,312.338 175.5,316C 175.375,317.627 174.875,319.127 174,320.5C 167.593,326.403 161.759,332.737 156.5,339.5C 151.551,342.449 146.884,342.116 142.5,338.5C 143.751,328.898 147.418,320.398 153.5,313C 147.909,306.903 141.909,301.403 135.5,296.5C 135.351,295.448 135.517,294.448 136,293.5C 141.485,287.517 147.985,283.184 155.5,280.5 Z"/></g>
<g><path style="opacity:1" fill="#576065" d="M 501.5,261.5 C 502.568,260.566 503.901,260.232 505.5,260.5C 514.836,269.671 523.67,279.338 532,289.5C 532.585,290.998 532.085,291.998 530.5,292.5C 522.19,282.519 513.856,272.519 505.5,262.5C 504.311,261.571 502.978,261.238 501.5,261.5 Z"/></g>
<g><path style="opacity:1" fill="#febf9d" d="M 108.5,300.5 C 107.673,305.985 107.173,311.652 107,317.5C 98.6459,334.373 91.1459,351.706 84.5,369.5C 79.8822,371.169 75.5488,370.503 71.5,367.5C 72.4464,356.809 73.6131,346.143 75,335.5C 77.0027,330.154 80.0027,325.487 84,321.5C 85.2616,313.887 85.7616,306.22 85.5,298.5C 84.3519,293.561 86.0186,290.061 90.5,288C 95.9308,286.969 100.931,287.969 105.5,291C 108.186,293.546 109.186,296.713 108.5,300.5 Z"/></g>
<g><path style="opacity:1" fill="#566772" d="M 381.5,280.5 C 377.638,283.55 375.305,287.55 374.5,292.5C 371.752,293.475 369.752,295.308 368.5,298C 367.517,298.591 366.85,298.257 366.5,297C 369.78,290.273 373.446,283.773 377.5,277.5C 378.901,278.521 380.235,279.521 381.5,280.5 Z"/></g>
<g><path style="opacity:1" fill="#fdbd9d" d="M 530.5,292.5 C 536.439,298.611 542.272,304.944 548,311.5C 550.138,314.696 550.638,318.029 549.5,321.5C 543.53,324.15 537.53,326.816 531.5,329.5C 525.941,321.269 519.275,313.936 511.5,307.5C 518.695,303.643 525.029,298.643 530.5,292.5 Z"/></g>
<g><path style="opacity:1" fill="#fcbc9f" d="M 432.5,293.5 C 433.833,294.833 435.167,296.167 436.5,297.5C 437.203,299.716 438.536,301.549 440.5,303C 443.194,305.347 446.194,307.18 449.5,308.5C 444.192,314.244 438.025,318.911 431,322.5C 425.136,319.819 419.303,316.985 413.5,314C 411.937,313.241 410.937,312.074 410.5,310.5C 413.211,306.044 415.544,301.377 417.5,296.5C 420.272,297.591 423.105,298.591 426,299.5C 428.652,298.015 430.818,296.015 432.5,293.5 Z"/></g>
<g><path style="opacity:1" fill="#525c60" d="M 31.5,278.5 C 29.5893,285.709 28.756,293.042 29,300.5C 33.2488,296.532 37.4154,296.532 41.5,300.5C 40.8902,301.505 40.2236,301.338 39.5,300C 33.8913,299.628 28.8913,301.294 24.5,305C 18.2994,310.2 14.1327,316.7 12,324.5C 13.1324,315.258 17.6324,307.925 25.5,302.5C 26.892,294.876 27.892,287.21 28.5,279.5C 29.6782,276.783 30.6782,276.45 31.5,278.5 Z"/></g>
<g><path style="opacity:1" fill="#984ff3" d="M 417.5,296.5 C 415.544,301.377 413.211,306.044 410.5,310.5C 407.617,311.873 405.283,311.207 403.5,308.5C 406.167,303.833 408.833,299.167 411.5,294.5C 411.56,293.957 411.893,293.624 412.5,293.5C 414.145,294.696 415.811,295.696 417.5,296.5 Z"/></g>
<g><path style="opacity:1" fill="#dcc3fb" d="M 409.5,292.5 C 410.167,293.167 410.833,293.833 411.5,294.5C 408.833,299.167 406.167,303.833 403.5,308.5C 402.209,308.737 401.209,308.404 400.5,307.5C 401.496,307.586 402.329,307.252 403,306.5C 405.885,302.131 408.051,297.464 409.5,292.5 Z"/></g>
<g><path style="opacity:1" fill="#994df8" d="M 549.5,321.5 C 550.496,321.414 551.329,321.748 552,322.5C 553.145,325.432 553.978,328.432 554.5,331.5C 547.877,333.377 541.544,336.044 535.5,339.5C 533.599,336.369 532.265,333.035 531.5,329.5C 537.53,326.816 543.53,324.15 549.5,321.5 Z"/></g>
<g><path style="opacity:1" fill="#596267" d="M 41.5,305.5 C 42.1239,305.917 42.4573,306.584 42.5,307.5C 38.3697,318.797 30.703,326.63 19.5,331C 17.272,331.82 15.272,331.487 13.5,330C 27.949,327.72 37.2824,319.553 41.5,305.5 Z"/></g>
<g><path style="opacity:1" fill="#994bfe" d="M 569.5,379.5 C 565.623,382.129 561.29,383.796 556.5,384.5C 549.833,370.495 543.166,356.495 536.5,342.5C 541.797,338.6 547.631,335.6 554,333.5C 560.229,348.354 565.396,363.687 569.5,379.5 Z"/></g>
<g><path style="opacity:1" fill="#4f626b" d="M 142.5,338.5 C 146.884,342.116 151.551,342.449 156.5,339.5C 156.953,340.458 157.619,341.292 158.5,342C 163.661,344.365 168.661,346.865 173.5,349.5C 171.359,350.163 169.025,350.497 166.5,350.5C 157.105,350.398 148.105,349.398 139.5,347.5C 140.633,344.443 141.633,341.443 142.5,338.5 Z"/></g>
<g><path style="opacity:1" fill="#bbc2c6" d="M 139.5,347.5 C 148.105,349.398 157.105,350.398 166.5,350.5C 169.025,350.497 171.359,350.163 173.5,349.5C 174.922,349.75 175.922,350.583 176.5,352C 163.838,352.5 151.171,352.667 138.5,352.5C 138.216,350.585 138.549,348.919 139.5,347.5 Z"/></g>
<g><path style="opacity:1" fill="#2e393f" d="M 482.5,357.5 C 487.604,358.291 489.604,361.291 488.5,366.5C 487.662,366.842 487.328,367.508 487.5,368.5C 482.08,369.332 479.413,366.999 479.5,361.5C 480.5,360.167 481.5,358.833 482.5,357.5 Z"/></g>
<g><path style="opacity:1" fill="#d5d6d6" d="M 516.5,375.5 C 516.5,374.167 516.5,372.833 516.5,371.5C 513.287,372.164 511.121,374.164 510,377.5C 509.387,379.495 509.887,381.162 511.5,382.5C 498.284,391.824 487.451,389.491 479,375.5C 478.185,370.648 478.352,365.981 479.5,361.5C 479.413,366.999 482.08,369.332 487.5,368.5C 488.929,371.308 489.595,374.308 489.5,377.5C 491.023,383.838 494.357,385.005 499.5,381C 498.536,379.275 497.869,377.441 497.5,375.5C 497.502,371.835 498.835,368.835 501.5,366.5C 503.262,366.643 504.929,366.309 506.5,365.5C 507.783,362.628 507.783,359.795 506.5,357C 499.533,354.799 496.866,357.299 498.5,364.5C 498.645,368.905 496.811,371.905 493,373.5C 490.016,372.214 488.516,369.881 488.5,366.5C 489.604,361.291 487.604,358.291 482.5,357.5C 485.593,351.862 490.427,348.862 497,348.5C 506.635,348.98 513.302,353.647 517,362.5C 517.814,367.02 517.647,371.354 516.5,375.5 Z"/></g>
<g><path style="opacity:1" fill="#2c383e" d="M 501.5,366.5 C 500.222,366.218 499.222,365.551 498.5,364.5C 496.866,357.299 499.533,354.799 506.5,357C 507.783,359.795 507.783,362.628 506.5,365.5C 504.929,366.309 503.262,366.643 501.5,366.5 Z"/></g>
<g><path style="opacity:1" fill="#4b5e67" d="M 71.5,367.5 C 75.5488,370.503 79.8822,371.169 84.5,369.5C 85.1859,370.848 86.1859,372.015 87.5,373C 86.9415,373.725 86.6082,374.558 86.5,375.5C 88.3514,382.049 89.3514,388.716 89.5,395.5C 88.1667,395.5 86.8333,395.5 85.5,395.5C 79.4707,388.475 73.4707,381.475 67.5,374.5C 66.6799,370.778 68.0132,368.445 71.5,367.5 Z"/></g>
<g><path style="opacity:1" fill="#39444a" d="M 516.5,375.5 C 515.567,378.37 513.9,380.704 511.5,382.5C 509.887,381.162 509.387,379.495 510,377.5C 511.121,374.164 513.287,372.164 516.5,371.5C 516.5,372.833 516.5,374.167 516.5,375.5 Z"/></g>
<g><path style="opacity:1" fill="#9b9fa2" d="M 498.5,364.5 C 499.222,365.551 500.222,366.218 501.5,366.5C 498.835,368.835 497.502,371.835 497.5,375.5C 495.283,374.631 492.95,374.298 490.5,374.5C 490.737,375.791 490.404,376.791 489.5,377.5C 489.595,374.308 488.929,371.308 487.5,368.5C 487.328,367.508 487.662,366.842 488.5,366.5C 488.516,369.881 490.016,372.214 493,373.5C 496.811,371.905 498.645,368.905 498.5,364.5 Z"/></g>
<g><path style="opacity:1" fill="#2b363c" d="M 497.5,375.5 C 497.869,377.441 498.536,379.275 499.5,381C 494.357,385.005 491.023,383.838 489.5,377.5C 490.404,376.791 490.737,375.791 490.5,374.5C 492.95,374.298 495.283,374.631 497.5,375.5 Z"/></g>
<g><path style="opacity:1" fill="#afb8bc" d="M 67.5,374.5 C 73.4707,381.475 79.4707,388.475 85.5,395.5C 83.0968,395.607 81.2635,394.607 80,392.5C 75.7597,387.683 71.7597,382.683 68,377.5C 67.5172,376.552 67.3505,375.552 67.5,374.5 Z"/></g>
<g><path style="opacity:1" fill="#52646f" d="M 569.5,379.5 C 572.85,379.335 576.183,379.502 579.5,380C 572.508,383.661 565.175,386.494 557.5,388.5C 557.567,387.041 557.234,385.708 556.5,384.5C 561.29,383.796 565.623,382.129 569.5,379.5 Z"/></g>
</svg>
