<?xml version="1.0" encoding="UTF-8"?>
<!DOCTYPE svg PUBLIC "-//W3C//DTD SVG 1.1//EN" "http://www.w3.org/Graphics/SVG/1.1/DTD/svg11.dtd">
<svg xmlns="http://www.w3.org/2000/svg" version="1.1" width="512px" height="512px" style="shape-rendering:geometricPrecision; text-rendering:geometricPrecision; image-rendering:optimizeQuality; fill-rule:evenodd; clip-rule:evenodd" xmlns:xlink="http://www.w3.org/1999/xlink">
<g><path style="opacity:0.992" fill="#010101" d="M 132.5,13.5 C 153.134,11.4677 163.134,20.801 162.5,41.5C 247.834,41.3333 333.167,41.5 418.5,42C 419.333,42.8333 420.167,43.6667 421,44.5C 421.667,171.167 421.667,297.833 421,424.5C 397.5,449.333 373.333,473.5 348.5,497C 263.167,497.667 177.833,497.667 92.5,497C 91.6667,496.167 90.8333,495.333 90,494.5C 89.3333,344.5 89.3333,194.5 90,44.5C 91.3189,42.5125 93.1523,41.3459 95.5,41C 102.826,40.5003 110.159,40.3337 117.5,40.5C 116.027,27.7698 121.027,18.7698 132.5,13.5 Z M 136.5,28.5 C 145.432,28.1108 149.098,32.4441 147.5,41.5C 142.5,41.5 137.5,41.5 132.5,41.5C 132.335,38.4816 132.502,35.4816 133,32.5C 133.69,30.6498 134.856,29.3164 136.5,28.5 Z"/></g>
<g><path style="opacity:1" fill="#e4e4e4" d="M 103.5,55.5 C 108.167,55.5 112.833,55.5 117.5,55.5C 117.334,61.8421 117.5,68.1754 118,74.5C 122.367,90.2706 132.534,96.104 148.5,92C 154.82,89.014 158.987,84.1807 161,77.5C 161.5,70.1742 161.666,62.8409 161.5,55.5C 243.5,55.5 325.5,55.5 407.5,55.5C 407.5,174.833 407.5,294.167 407.5,413.5C 385.076,413.021 362.742,413.521 340.5,415C 339.299,415.903 338.465,417.069 338,418.5C 337.5,440.164 337.333,461.831 337.5,483.5C 259.5,483.5 181.5,483.5 103.5,483.5C 103.5,340.833 103.5,198.167 103.5,55.5 Z"/></g>
<g><path style="opacity:1" fill="#dcdcdc" d="M 131.5,55.5 C 137.167,55.5 142.833,55.5 148.5,55.5C 148.666,61.5092 148.499,67.5092 148,73.5C 145.068,79.544 140.568,81.044 134.5,78C 133.299,77.0975 132.465,75.9308 132,74.5C 131.5,68.1754 131.334,61.8421 131.5,55.5 Z"/></g>
<g><path style="opacity:1" fill="#040404" d="M 192.5,79.5 C 234.168,79.3333 275.835,79.5 317.5,80C 319.286,80.7845 320.786,81.9512 322,83.5C 322.667,125.833 322.667,168.167 322,210.5C 321.626,211.416 321.126,212.25 320.5,213C 277.584,214.656 234.584,214.989 191.5,214C 190.667,213.167 189.833,212.333 189,211.5C 188.333,168.833 188.333,126.167 189,83.5C 190.376,82.2949 191.542,80.9616 192.5,79.5 Z"/></g>
<g><path style="opacity:1" fill="#6f6d7c" d="M 308.5,200.5 C 308.5,165.167 308.5,129.833 308.5,94.5C 273.167,94.5 237.833,94.5 202.5,94.5C 202.5,129.833 202.5,165.167 202.5,200.5C 201.502,165.004 201.168,129.337 201.5,93.5C 237.5,93.5 273.5,93.5 309.5,93.5C 309.832,129.337 309.498,165.004 308.5,200.5 Z"/></g>
<g><path style="opacity:1" fill="#cdcae4" d="M 308.5,200.5 C 306.5,200.5 304.5,200.5 302.5,200.5C 304.683,179.856 296.683,164.856 278.5,155.5C 288.257,139.513 285.924,125.679 271.5,114C 254.353,105.068 240.52,108.568 230,124.5C 224.879,135.294 225.712,145.627 232.5,155.5C 213.971,164.676 205.971,179.676 208.5,200.5C 206.5,200.5 204.5,200.5 202.5,200.5C 202.5,165.167 202.5,129.833 202.5,94.5C 237.833,94.5 273.167,94.5 308.5,94.5C 308.5,129.833 308.5,165.167 308.5,200.5 Z"/></g>
<g><path style="opacity:1" fill="#9291c4" d="M 250.5,123.5 C 264.001,122.173 270.501,128.173 270,141.5C 266.578,150.568 260.078,154.068 250.5,152C 240.28,146.393 238.113,138.559 244,128.5C 245.965,126.45 248.132,124.783 250.5,123.5 Z"/></g>
<g><path style="opacity:1" fill="#9594c8" d="M 237.5,168.5 C 249.171,168.333 260.838,168.5 272.5,169C 279.573,171.072 284.406,175.572 287,182.5C 287.499,188.491 287.666,194.491 287.5,200.5C 266.167,200.5 244.833,200.5 223.5,200.5C 220.092,186.006 224.758,175.339 237.5,168.5 Z"/></g>
<g><path style="opacity:1" fill="#040303" d="M 152.5,387.5 C 183.174,387.833 213.841,387.5 244.5,386.5C 244.376,385.893 244.043,385.56 243.5,385.5C 232.839,375.534 225.172,363.534 220.5,349.5C 197.507,348.667 174.507,348.167 151.5,348C 147.311,343.322 147.644,338.989 152.5,335C 173.831,334.5 195.164,334.333 216.5,334.5C 211.906,289.965 229.24,257.132 268.5,236C 302.002,221.992 333.669,225.325 363.5,246C 397.72,275.393 407.553,311.559 393,354.5C 373.725,395.063 341.558,413.897 296.5,411C 282.53,409.677 269.697,405.177 258,397.5C 256.51,398.317 255.01,399.15 253.5,400C 219.5,400.667 185.5,400.667 151.5,400C 148.114,396.627 147.614,392.794 150,388.5C 150.671,387.748 151.504,387.414 152.5,387.5 Z"/></g>
<g><path style="opacity:1" fill="#c93636" d="M 295.5,241.5 C 342.965,239.158 372.799,260.825 385,306.5C 388.693,343.616 374.526,371.45 342.5,390C 301.884,406.307 268.384,397.14 242,362.5C 221.453,325.28 225.953,291.446 255.5,261C 267.251,251.145 280.584,244.645 295.5,241.5 Z"/></g>
<g><path style="opacity:1" fill="#010101" d="M 125.5,255.5 C 142.17,255.333 158.837,255.5 175.5,256C 179.5,260 179.5,264 175.5,268C 158.833,268.667 142.167,268.667 125.5,268C 120.232,263.837 120.232,259.671 125.5,255.5 Z"/></g>
<g><path style="opacity:1" fill="#060303" d="M 265.5,264.5 C 271.208,263.69 276.208,265.19 280.5,269C 289.667,278.167 298.833,287.333 308,296.5C 317.833,286.667 327.667,276.833 337.5,267C 348.267,262.299 356.434,265.132 362,275.5C 362.866,280.709 362.199,285.709 360,290.5C 350.319,300.014 340.819,309.681 331.5,319.5C 340.486,328.986 349.652,338.319 359,347.5C 364.441,356.584 363.274,364.751 355.5,372C 348.664,375.517 341.997,375.184 335.5,371C 326.319,361.652 316.986,352.486 307.5,343.5C 297.318,353.516 286.985,363.349 276.5,373C 263.048,376.611 255.048,371.611 252.5,358C 252.952,354.591 254.119,351.424 256,348.5C 265.5,339 275,329.5 284.5,320C 273.601,309.77 263.434,298.937 254,287.5C 250.91,276.347 254.743,268.68 265.5,264.5 Z"/></g>
<g><path style="opacity:1" fill="#f2f2f2" d="M 267.5,278.5 C 268.552,278.351 269.552,278.517 270.5,279C 281.5,290 292.5,301 303.5,312C 305.695,313.373 308.029,313.706 310.5,313C 321.833,301.667 333.167,290.333 344.5,279C 347.667,278.167 348.833,279.333 348,282.5C 337.333,293.167 326.667,303.833 316,314.5C 314,317.833 314,321.167 316,324.5C 326.667,335.167 337.333,345.833 348,356.5C 348.833,359.667 347.667,360.833 344.5,360C 333.5,349 322.5,338 311.5,327C 308.366,326.21 305.366,326.543 302.5,328C 291.833,338.667 281.167,349.333 270.5,360C 267.333,360.833 266.167,359.667 267,356.5C 278,345.5 289,334.5 300,323.5C 302,320.833 302,318.167 300,315.5C 289,304.5 278,293.5 267,282.5C 266.421,281.072 266.588,279.738 267.5,278.5 Z"/></g>
<g><path style="opacity:1" fill="#010101" d="M 152.5,282.5 C 172.836,282.333 193.169,282.5 213.5,283C 220.167,287.333 220.167,291.667 213.5,296C 193.167,296.667 172.833,296.667 152.5,296C 148.788,293.487 147.622,289.987 149,285.5C 150.145,284.364 151.312,283.364 152.5,282.5 Z"/></g>
<g><path style="opacity:1" fill="#040404" d="M 152.5,308.5 C 168.503,308.333 184.503,308.5 200.5,309C 206.839,312.735 207.172,317.069 201.5,322C 185.167,322.667 168.833,322.667 152.5,322C 148.172,319.11 147.339,315.277 150,310.5C 150.995,309.934 151.828,309.267 152.5,308.5 Z"/></g>
<g><path style="opacity:1" fill="#050505" d="M 125.5,361.5 C 141.837,361.333 158.17,361.5 174.5,362C 178.292,364.053 179.458,367.219 178,371.5C 177.5,373.333 176.333,374.5 174.5,375C 158.5,375.667 142.5,375.667 126.5,375C 120.317,370.921 119.983,366.421 125.5,361.5 Z"/></g>
<g><path style="opacity:1" fill="#2e2e2e" d="M 243.5,385.5 C 244.043,385.56 244.376,385.893 244.5,386.5C 213.841,387.5 183.174,387.833 152.5,387.5C 182.833,386.833 213.167,386.167 243.5,385.5 Z"/></g>
<g><path style="opacity:1" fill="#090909" d="M 151.5,414.5 C 184.168,414.333 216.835,414.5 249.5,415C 253.629,417.631 254.462,421.131 252,425.5C 251.097,426.701 249.931,427.535 248.5,428C 216.5,428.667 184.5,428.667 152.5,428C 147.588,423.797 147.255,419.297 151.5,414.5 Z"/></g>
<g><path style="opacity:1" fill="#5f5f5f" d="M 395.5,429.5 C 381.343,428.504 367.01,428.171 352.5,428.5C 352.171,443.01 352.504,457.343 353.5,471.5C 353.217,472.289 352.717,472.956 352,473.5C 351.5,458.17 351.333,442.837 351.5,427.5C 366.837,427.333 382.17,427.5 397.5,428C 396.956,428.717 396.289,429.217 395.5,429.5 Z"/></g>
<g><path style="opacity:1" fill="#7e7e7e" d="M 395.5,429.5 C 381.833,443.833 367.833,457.833 353.5,471.5C 352.504,457.343 352.171,443.01 352.5,428.5C 367.01,428.171 381.343,428.504 395.5,429.5 Z"/></g>
</svg>
