<svg width="20" height="20" viewBox="0 0 24 24" fill="none" xmlns="http://www.w3.org/2000/svg">
  <circle cx="12" cy="12" r="10" fill="#858585"/>
  <path d="M12 2c-2.5 0-4.5 1-6 2.5C4.5 6 3.5 8 3.5 10.5c0 1.5.5 3 1.5 4.5C6 16.5 8 17.5 10.5 17.5c1.5 0 3-.5 4.5-1.5C16.5 15 17.5 13 17.5 10.5c0-2.5-1-4.5-2.5-6C14 3 12 2 12 2z" fill="white"/>
  <path d="M12 4c-1.5 0-3 .5-4 1.5C7 6.5 6.5 8 6.5 9.5c0 1 .5 2 1.5 3C8.5 13.5 10 14 11.5 14c1 0 2-.5 3-1.5C15.5 11.5 16 10 16 8.5c0-1.5-.5-3-1.5-4C14 4.5 13 4 12 4z" fill="#858585"/>
  <path d="M12 6c-.5 0-1 .5-1.5 1C10 7.5 9.5 8 9.5 8.5c0 .5.5 1 1 1.5C11 10.5 11.5 11 12 11c.5 0 1-.5 1.5-1C13.5 9.5 14 9 14 8.5c0-.5-.5-1-1-1.5C12.5 6.5 12.5 6 12 6z" fill="white"/>
</svg>
