<?xml version="1.0" encoding="UTF-8"?>
<svg version="1.1" xmlns="http://www.w3.org/2000/svg" width="512" height="512">
<path d="M0 0 C9.62310573 8.429388 18.18028266 17.34096838 26.125 27.375 C26.96675781 28.38820313 27.80851562 29.40140625 28.67578125 30.4453125 C52.79201869 59.72111831 67.7605755 95.37447576 75.125 132.375 C75.28871094 133.15762207 75.45242188 133.94024414 75.62109375 134.74658203 C87.22964904 192.48955073 72.3702698 256.52550284 40.05859375 305.1484375 C35.72278367 311.48132199 31.04625463 317.4895951 26.125 323.375 C25.63499512 323.96651855 25.14499023 324.55803711 24.64013672 325.16748047 C15.04400654 336.71923474 4.92295495 347.0336484 -6.875 356.375 C-7.88820313 357.21675781 -8.90140625 358.05851562 -9.9453125 358.92578125 C-50.41821301 392.26573728 -102.44570812 408.9193511 -154.5 408.6875 C-155.37584747 408.68534485 -156.25169495 408.6831897 -157.15408325 408.68096924 C-170.91361207 408.62679971 -184.34771536 408.09758007 -197.875 405.375 C-198.86918945 405.17632324 -199.86337891 404.97764648 -200.88769531 404.77294922 C-238.33109554 397.02783932 -273.48698669 380.94865281 -302.875 356.375 C-303.76227783 355.63999268 -303.76227783 355.63999268 -304.66748047 354.89013672 C-316.21923474 345.29400654 -326.5336484 335.17295495 -335.875 323.375 C-336.71675781 322.36179687 -337.55851562 321.34859375 -338.42578125 320.3046875 C-371.68025201 279.93556149 -388.36627203 227.98618099 -388.25 176.0625 C-388.24945618 175.14391205 -388.24891235 174.2253241 -388.24835205 173.27890015 C-388.20605534 157.67124322 -387.17257005 142.67774651 -383.875 127.375 C-383.66601074 126.39660156 -383.45702148 125.41820312 -383.24169922 124.41015625 C-375.33740587 88.74314266 -359.31039475 55.40175281 -335.875 27.375 C-335.13999268 26.48772217 -335.13999268 26.48772217 -334.39013672 25.58251953 C-325.59192066 14.99128869 -316.43577742 5.17552459 -305.62890625 -3.421875 C-303.85998761 -4.83700991 -302.11502543 -6.28292428 -300.40234375 -7.765625 C-273.14150254 -31.19225207 -237.75059393 -46.17545367 -202.875 -53.625 C-201.89917969 -53.83527832 -200.92335937 -54.04555664 -199.91796875 -54.26220703 C-128.66337613 -68.8527632 -54.55030776 -47.02898793 0 0 Z M-195.875 -41.625 C-197.36966797 -41.32916016 -197.36966797 -41.32916016 -198.89453125 -41.02734375 C-199.87486328 -40.82818359 -199.87486328 -40.82818359 -200.875 -40.625 C-197.26744682 -36.68691184 -193.08165679 -33.7626386 -188.75 -30.6875 C-187.13927994 -29.53391417 -185.5286042 -28.38026646 -183.91796875 -27.2265625 C-183.08958496 -26.63520508 -182.26120117 -26.04384766 -181.40771484 -25.43457031 C-177.28444201 -22.48858051 -173.17303882 -19.52621803 -169.0625 -16.5625 C-168.31661621 -16.0269751 -167.57073242 -15.4914502 -166.80224609 -14.93969727 C-163.07982946 -12.25838206 -159.42551794 -9.53377403 -155.875 -6.625 C-152.18671761 -8.2909633 -149.00984712 -10.57067881 -145.75 -12.9375 C-144.84834106 -13.5869458 -144.84834106 -13.5869458 -143.9284668 -14.24951172 C-142.61428462 -15.19676316 -141.30109494 -16.1453927 -139.98876953 -17.09521484 C-137.77445532 -18.69776657 -135.55738658 -20.29645061 -133.33984375 -21.89453125 C-125.17040929 -27.78476215 -117.01318412 -33.69165431 -108.875 -39.625 C-129.05719904 -52.10324134 -173.73027033 -46.16690524 -195.875 -41.625 Z M-98.9375 -31.4375 C-100.20571438 -30.51169849 -101.4739443 -29.58591827 -102.7421875 -28.66015625 C-103.41475586 -28.16531738 -104.08732422 -27.67047852 -104.78027344 -27.16064453 C-106.88930136 -25.61451567 -109.00888101 -24.08417346 -111.1328125 -22.55859375 C-119.18584148 -16.77394799 -127.20066426 -10.93819282 -135.1875 -5.0625 C-135.9818042 -4.47887695 -136.7761084 -3.89525391 -137.59448242 -3.29394531 C-138.71753784 -2.46588379 -138.71753784 -2.46588379 -139.86328125 -1.62109375 C-140.51852783 -1.13825928 -141.17377441 -0.6554248 -141.84887695 -0.15795898 C-142.51749756 0.34791748 -143.18611816 0.85379395 -143.875 1.375 C-144.72320816 1.8920903 -145.57141632 2.4091806 -146.44532776 2.94194031 C-149.79082985 6.2921067 -149.69164666 9.33769173 -149.77587891 13.83691406 C-149.81034119 14.68961884 -149.84480347 15.54232361 -149.88031006 16.42086792 C-149.98396601 19.2441062 -150.0472423 22.06602629 -150.1015625 24.890625 C-150.12318829 25.85991692 -150.14481407 26.82920883 -150.16709518 27.82787323 C-150.27726677 32.96849993 -150.35381026 38.1084721 -150.40576172 43.25 C-150.45438757 47.48255617 -150.56521418 51.70609946 -150.73388672 55.93554688 C-152.92847271 80.14177995 -152.92847271 80.14177995 -144.42333984 101.55224609 C-140.17931347 105.18470668 -135.66562604 107.73877316 -130.59353638 110.03764343 C-126.05411066 112.27076816 -122.2230513 115.40021752 -118.25 118.5 C-116.69367176 119.64937774 -115.13419757 120.79451945 -113.5703125 121.93359375 C-109.55699305 124.87350551 -105.55059258 127.82264575 -101.54760742 130.77661133 C-99.95023192 131.95415862 -98.35146575 133.12982209 -96.7512207 134.3034668 C-92.96890885 137.07895628 -89.20805192 139.87546794 -85.48828125 142.734375 C-84.80282227 143.25491455 -84.11736328 143.7754541 -83.41113281 144.31176758 C-82.13040396 145.28562214 -80.8570805 146.26932302 -79.59277344 147.2644043 C-76.61391923 149.72059488 -76.61391923 149.72059488 -72.97070312 150.12304688 C-70.66302897 149.29933839 -68.52972908 148.32336832 -66.33984375 147.22265625 C-65.45852783 146.78139404 -64.57721191 146.34013184 -63.66918945 145.88549805 C-62.72648193 145.40765869 -61.78377441 144.92981934 -60.8125 144.4375 C-59.82660889 143.94096924 -58.84071777 143.44443848 -57.82495117 142.93286133 C-50.99497318 139.48079766 -44.20270154 135.96140048 -37.44458008 132.37084961 C-32.60377637 129.80064102 -27.74228304 127.27421824 -22.86328125 124.77734375 C-21.63365565 124.14634162 -20.4040822 123.51523784 -19.17456055 122.8840332 C-16.76869334 121.64894049 -14.35968227 120.42078726 -11.94848633 119.19604492 C-10.84400146 118.62861572 -9.7395166 118.06118652 -8.6015625 117.4765625 C-7.61752441 116.97463379 -6.63348633 116.47270508 -5.61962891 115.95556641 C-0.00948825 112.73101696 -0.00948825 112.73101696 3.37838745 107.38404846 C3.81926193 105.63462196 3.81926193 105.63462196 4.26904297 103.84985352 C4.43719009 103.20381165 4.60533722 102.55776978 4.77857971 101.89215088 C5.3265592 99.76695514 5.84733058 97.6361401 6.3671875 95.50390625 C6.74225169 94.01910833 7.11866609 92.53465088 7.49636841 91.05052185 C8.28273622 87.94394805 9.0563231 84.83456323 9.8203125 81.72241211 C10.79891117 77.73819751 11.80329802 73.76106219 12.81661797 69.78555393 C13.59536452 66.72240782 14.36319277 63.65661041 15.12747574 60.58982658 C15.49399541 59.12237178 15.86322243 57.65559037 16.23522568 56.18951607 C16.75326693 54.13865691 17.25719329 52.08483072 17.75732422 50.02954102 C18.04646698 48.86246109 18.33560974 47.69538116 18.6335144 46.49293518 C19.23111051 42.7018456 19.08952618 39.89044294 17.00854492 36.62084961 C16.54552979 36.09499268 16.08251465 35.56913574 15.60546875 35.02734375 C15.08388184 34.42809082 14.56229492 33.82883789 14.02490234 33.21142578 C13.45980957 32.58478027 12.8947168 31.95813477 12.3125 31.3125 C11.72936035 30.65491699 11.1462207 29.99733398 10.54541016 29.31982422 C1.75208419 19.49534358 -7.43830518 10.47269087 -17.875 2.375 C-18.77347656 1.65957031 -19.67195312 0.94414063 -20.59765625 0.20703125 C-35.71580262 -11.5422847 -81.26290976 -44.5996931 -98.9375 -31.4375 Z M-224.0703125 -34.5078125 C-225.25294678 -34.09934082 -225.25294678 -34.09934082 -226.45947266 -33.68261719 C-227.29784668 -33.37485352 -228.1362207 -33.06708984 -229 -32.75 C-229.88091309 -32.43192383 -230.76182617 -32.11384766 -231.66943359 -31.78613281 C-251.9341754 -24.28763602 -270.77757203 -13.85286562 -287.875 -0.625 C-288.68839844 -0.00367188 -289.50179687 0.61765625 -290.33984375 1.2578125 C-312.98282288 18.30301255 -312.98282288 18.30301255 -328.74609375 40.71875 C-328.92468125 44.39873494 -327.9521028 47.62897804 -326.9375 51.125 C-325.32138724 57.05345385 -324.43304538 62.18763528 -324.875 68.375 C-327.845 68.375 -330.815 68.375 -333.875 68.375 C-335.76195626 64.08646306 -337.45692622 59.84738653 -338.875 55.375 C-360.08961373 73.32195996 -368.3885983 114.28995774 -372.875 140.375 C-368.01246138 138.96546043 -363.91968038 136.80475965 -359.625 134.1875 C-358.14272088 133.29945493 -356.65958588 132.41283754 -355.17578125 131.52734375 C-354.35158691 131.03476074 -353.52739258 130.54217773 -352.67822266 130.03466797 C-347.08532975 126.72335583 -341.44559538 123.49226914 -335.8125 120.25 C-334.62789659 119.56752164 -333.4433256 118.884987 -332.25878906 118.20239258 C-329.46457675 116.59259327 -326.66998288 114.98346091 -323.875 113.375 C-324.12636719 112.25351562 -324.12636719 112.25351562 -324.3828125 111.109375 C-324.58648437 110.12453125 -324.79015625 109.1396875 -325 108.125 C-325.20882812 107.15046875 -325.41765625 106.1759375 -325.6328125 105.171875 C-325.89810416 102.1081842 -325.67604791 100.84078799 -323.875 98.375 C-320.9375 97.5 -320.9375 97.5 -317.875 97.375 C-314.875 99.375 -314.875 99.375 -314.2421875 101.765625 C-313.91624537 103.65919359 -313.60354876 105.55509386 -313.3046875 107.453125 C-309.8357142 114.5427207 -300.3302255 117.83250206 -293.5 121.125 C-291.72184131 121.9983427 -289.94451582 122.8733836 -288.16796875 123.75 C-287.27899902 124.18828125 -286.3900293 124.6265625 -285.47412109 125.078125 C-281.55479216 127.03373981 -277.68243508 129.07381251 -273.8125 131.125 C-272.69113647 131.71474609 -272.69113647 131.71474609 -271.54711914 132.31640625 C-267.24042823 134.58322593 -262.94777397 136.8737345 -258.66777039 139.19061279 C-256.20756017 140.5181408 -253.74028147 141.83217064 -251.27175903 143.14416504 C-250.05433236 143.79516069 -248.83998179 144.45194374 -247.62887573 145.11462402 C-245.92848787 146.04420579 -244.21638631 146.95226245 -242.50390625 147.859375 C-241.51463135 148.39272461 -240.52535645 148.92607422 -239.50610352 149.47558594 C-236.95410984 150.64423042 -236.95410984 150.64423042 -234.70385742 149.65478516 C-233.798573 149.0212915 -233.798573 149.0212915 -232.875 148.375 C-231.92109375 147.72789062 -230.9671875 147.08078125 -229.984375 146.4140625 C-228.86207473 145.61287747 -227.742445 144.80794308 -226.625 144 C-226.01293701 143.56010742 -225.40087402 143.12021484 -224.77026367 142.66699219 C-219.52597981 138.88118565 -214.3493669 135.00747654 -209.18383789 131.11523438 C-201.62296781 125.42005691 -193.99525276 119.81662589 -186.36865234 114.20996094 C-183.76080179 112.29096693 -181.15548902 110.36856983 -178.55078125 108.4453125 C-177.68428955 107.80577637 -176.81779785 107.16624023 -175.92504883 106.50732422 C-174.25917237 105.2776538 -172.59363027 104.04753026 -170.9284668 102.81689453 C-170.17863525 102.26372559 -169.42880371 101.71055664 -168.65625 101.140625 C-167.99689453 100.65368164 -167.33753906 100.16673828 -166.65820312 99.66503906 C-165.09032014 98.53077103 -163.48514546 97.44843031 -161.875 96.375 C-161.50406432 93.48274328 -161.33045558 90.79598862 -161.28051758 87.89306641 C-161.25437881 87.01472137 -161.22824005 86.13637634 -161.2013092 85.23141479 C-161.12153537 82.31321791 -161.06718458 79.39545388 -161.01953125 76.4765625 C-160.99370248 74.97928682 -160.99370248 74.97928682 -160.96735191 73.45176315 C-160.88121368 68.16015139 -160.81806232 62.86874367 -160.76977539 57.57666016 C-160.72540524 53.20794397 -160.63516993 48.84398323 -160.50317383 44.47705078 C-160.3436245 39.19615926 -160.26397865 33.91958842 -160.24014854 28.6363945 C-160.21826113 26.63065636 -160.16922337 24.62501101 -160.09162331 22.62065506 C-159.43527898 11.91048375 -159.43527898 11.91048375 -163.44856453 2.36029434 C-167.23623766 -1.25475505 -171.4632406 -3.99422534 -176.01099491 -6.5569191 C-178.37975041 -7.91422361 -180.53731214 -9.49534304 -182.70703125 -11.1484375 C-184.03270215 -12.10056437 -185.35950073 -13.05112337 -186.6875 -14 C-191.51808442 -17.45813171 -196.31986423 -20.94525664 -201.0625 -24.5234375 C-201.9186792 -25.16619629 -202.7748584 -25.80895508 -203.65698242 -26.47119141 C-205.30843576 -27.71364516 -206.9547056 -28.96302757 -208.5949707 -30.22021484 C-209.34351318 -30.7817627 -210.09205566 -31.34331055 -210.86328125 -31.921875 C-211.51852783 -32.42041992 -212.17377441 -32.91896484 -212.84887695 -33.43261719 C-216.71999623 -35.71078884 -219.87442104 -35.97299783 -224.0703125 -34.5078125 Z M29.125 55.375 C25.8907216 66.6380901 22.88212732 77.96127506 19.93380737 89.30209351 C19.52032804 90.88957874 19.10474634 92.4765179 18.68704224 94.06289673 C18.09131039 96.32816877 17.50366303 98.59539609 16.91796875 100.86328125 C16.73694611 101.54604126 16.55592346 102.22880127 16.36941528 102.93225098 C15.46859631 106.45862163 14.63540058 109.73844396 15.125 113.375 C17.45841324 115.14725272 19.55984858 116.45181687 22.125 117.8125 C23.6723324 118.67626446 25.21917811 119.54090115 26.765625 120.40625 C28.04083008 121.10814453 28.04083008 121.10814453 29.34179688 121.82421875 C34.56797643 124.73620932 39.71394076 127.78711905 44.875 130.8125 C46.91123177 131.9990868 48.94767762 133.18530632 50.984375 134.37109375 C53.63336969 135.91340059 56.24976955 137.45599175 58.82128906 139.12524414 C59.58151367 139.53766357 60.34173828 139.95008301 61.125 140.375 C61.785 140.045 62.445 139.715 63.125 139.375 C57.45519624 110.3973293 48.44982825 80.76739933 31.125 56.375 C30.465 56.045 29.805 55.715 29.125 55.375 Z M-159.55859375 109.9453125 C-160.68817505 110.78473389 -160.68817505 110.78473389 -161.84057617 111.64111328 C-162.65631104 112.2545459 -163.4720459 112.86797852 -164.3125 113.5 C-166.04676143 114.79181915 -167.78113968 116.08348147 -169.515625 117.375 C-170.40572266 118.04015625 -171.29582031 118.7053125 -172.21289062 119.390625 C-176.31421135 122.44780904 -180.43956404 125.47207307 -184.5625 128.5 C-190.37925687 132.779751 -196.17057163 137.0908874 -201.9375 141.4375 C-210.48851967 147.88101986 -219.17582707 154.13366877 -227.875 160.375 C-225.84368698 168.99410258 -223.37531896 177.40151195 -220.63671875 185.8203125 C-220.23346878 187.07020966 -219.83021881 188.32010681 -219.41474915 189.60787964 C-218.35039383 192.90638649 -217.28120999 196.2033085 -216.21105957 199.49993896 C-215.3530238 202.14599337 -214.49853005 204.79318475 -213.64422894 207.44044685 C-209.12491858 221.44295001 -204.52811883 235.41564351 -199.875 249.375 C-170.175 249.375 -140.475 249.375 -109.875 249.375 C-99.87002996 219.47223964 -99.87002996 219.47223964 -90.02392578 189.51660156 C-89.32201946 187.36301775 -88.61402347 185.21141194 -87.90087891 183.06152344 C-86.83913508 179.85791292 -85.79642771 176.64867132 -84.7578125 173.4375 C-84.27382492 171.99733521 -84.27382492 171.99733521 -83.78005981 170.52807617 C-83.35743362 169.20126831 -83.35743362 169.20126831 -82.92626953 167.84765625 C-82.67378448 167.07687744 -82.42129944 166.30609863 -82.16116333 165.51196289 C-81.79942424 162.81062793 -82.41760214 161.6374307 -83.875 159.375 C-85.51194815 157.83186112 -85.51194815 157.83186112 -87.48828125 156.484375 C-88.23118408 155.94780273 -88.97408691 155.41123047 -89.73950195 154.85839844 C-90.54734131 154.28637695 -91.35518066 153.71435547 -92.1875 153.125 C-93.91791226 151.87672488 -95.64703169 150.62665606 -97.375 149.375 C-98.27734375 148.72273438 -99.1796875 148.07046875 -100.109375 147.3984375 C-104.69084837 144.04645557 -109.18597538 140.58316833 -113.6875 137.125 C-120.51740813 131.89336979 -127.40525218 126.78574096 -134.44140625 121.8359375 C-137.07018945 119.9723583 -139.64761326 118.04903916 -142.21484375 116.1015625 C-142.94856201 115.54500977 -143.68228027 114.98845703 -144.43823242 114.41503906 C-145.87000751 113.3248631 -147.29868852 112.23060864 -148.72387695 111.13183594 C-154.11259052 106.90751731 -154.11259052 106.90751731 -159.55859375 109.9453125 Z M-321.74609375 126.12890625 C-322.7834668 126.72920654 -323.82083984 127.32950684 -324.88964844 127.94799805 C-326.01918945 128.60453369 -327.14873047 129.26106934 -328.3125 129.9375 C-329.47807267 130.61323971 -330.64376433 131.28877421 -331.80957031 131.96411133 C-333.62922106 133.01824709 -335.44877069 134.07255346 -337.26785278 135.12767029 C-341.56444538 137.61915164 -345.86810476 140.09805188 -350.17578125 142.5703125 C-351.35297154 143.24661889 -352.53013662 143.92296917 -353.70727539 144.59936523 C-355.94395231 145.88410837 -358.18139054 147.16752723 -360.41967773 148.44946289 C-361.44134033 149.03719482 -362.46300293 149.62492676 -363.515625 150.23046875 C-364.40797852 150.74246826 -365.30033203 151.25446777 -366.21972656 151.78198242 C-367.53408691 152.57052612 -367.53408691 152.57052612 -368.875 153.375 C-369.96127686 153.93558105 -371.04755371 154.49616211 -372.16674805 155.07373047 C-375.22540023 157.19175768 -375.22540023 157.19175768 -375.60375977 160.98413086 C-375.62277766 162.43596399 -375.60817728 163.88848704 -375.56640625 165.33984375 C-375.56634583 166.12098541 -375.5662854 166.90212708 -375.56622314 167.7069397 C-375.55560904 170.24361532 -375.49895452 172.7765841 -375.4375 175.3125 C-375.41360502 177.05785186 -375.39041343 178.8032135 -375.36791992 180.54858398 C-375.16040568 192.67188496 -374.39186697 204.49172159 -371.875 216.375 C-371.70871094 217.20596191 -371.54242188 218.03692383 -371.37109375 218.89306641 C-366.29390447 243.87941919 -357.17318633 267.48835992 -344.125 289.375 C-343.67729248 290.13530518 -343.22958496 290.89561035 -342.76831055 291.67895508 C-342.33429932 292.3830249 -341.90028809 293.08709473 -341.453125 293.8125 C-341.07575195 294.42996094 -340.69837891 295.04742187 -340.30957031 295.68359375 C-337.85013623 298.58334857 -335.04455907 300.15847454 -331.31115723 300.84965515 C-330.40216675 300.89628799 -329.49317627 300.94292084 -328.55664062 300.9909668 C-327.51785767 301.05080246 -326.47907471 301.11063812 -325.40881348 301.17228699 C-324.29421753 301.22242447 -323.17962158 301.27256195 -322.03125 301.32421875 C-320.2902301 301.41773369 -320.2902301 301.41773369 -318.51403809 301.51313782 C-314.80155699 301.70895186 -311.08842251 301.88554425 -307.375 302.0625 C-304.90618831 302.19219033 -302.4374371 302.3230374 -299.96875 302.45507812 C-297.57297104 302.57917919 -295.17713886 302.7022579 -292.78125 302.82421875 C-291.6828479 302.88042892 -290.5844458 302.9366391 -289.45275879 302.99455261 C-283.89882662 303.25752488 -278.34495082 303.44705236 -272.78540039 303.53564453 C-271.73558487 303.55410431 -270.68576935 303.57256409 -269.60414124 303.59158325 C-265.20279188 303.24229442 -263.79670677 301.7807622 -260.8125 298.5625 C-259.82248397 297.54472651 -258.83157233 296.52782358 -257.83984375 295.51171875 C-257.35112793 294.98884277 -256.86241211 294.4659668 -256.35888672 293.92724609 C-253.98462353 291.44360586 -251.42861798 289.17122192 -248.875 286.875 C-247.87662399 285.96200819 -246.87922925 285.04794219 -245.8828125 284.1328125 C-245.38813477 283.67938477 -244.89345703 283.22595703 -244.38378906 282.75878906 C-242.85669498 281.35821151 -241.3305815 279.95657234 -239.8046875 278.5546875 C-235.09345125 274.22779684 -230.3746112 269.90981744 -225.625 265.625 C-224.43197266 264.53832031 -224.43197266 264.53832031 -223.21484375 263.4296875 C-221.66745806 262.07088137 -220.07522313 260.76136703 -218.44140625 259.5078125 C-217.69761719 258.92773438 -216.95382813 258.34765625 -216.1875 257.75 C-215.19169922 257.01910156 -215.19169922 257.01910156 -214.17578125 256.2734375 C-212.51288801 253.84651223 -212.90874725 252.43120112 -213.37834167 249.61621094 C-214.4626909 244.72299718 -216.06356096 239.97527221 -217.59375 235.20703125 C-218.1589032 233.42373665 -218.1589032 233.42373665 -218.73547363 231.60441589 C-219.74074105 228.4361143 -220.75079248 225.26942033 -221.76318359 222.10339355 C-223.152386 217.75312782 -224.53064736 213.39937809 -225.90896606 209.0456543 C-226.70104774 206.56292924 -227.50326175 204.08341478 -228.31539917 201.60717773 C-230.36570483 195.32791459 -232.23823602 189.07463549 -233.81298828 182.65820312 C-237.29025052 167.81336831 -237.29025052 167.81336831 -247.21588135 156.94313049 C-251.27279209 154.70300282 -255.44446094 152.94921142 -259.75 151.25 C-261.43120488 150.50796665 -263.10834461 149.75665334 -264.78125 148.99609375 C-268.11571376 147.49048263 -271.46566041 146.03323706 -274.83349609 144.60400391 C-282.41697339 141.32626038 -289.65260395 137.37256237 -296.91107178 133.43914795 C-299.40440144 132.0881456 -301.90874575 130.75830205 -304.4140625 129.4296875 C-306.50109167 128.3171168 -308.58734544 127.20318536 -310.671875 126.0859375 C-316.15541106 123.16694492 -316.45022505 123.05617829 -321.74609375 126.12890625 Z M-0.5234375 126.7421875 C-1.202995 127.09240463 -1.88255249 127.44262177 -2.58270264 127.80345154 C-4.80622835 128.95019685 -7.02815806 130.09999618 -9.25 131.25 C-10.77843979 132.03939046 -12.30692295 132.82869694 -13.83544922 133.61791992 C-26.42798581 140.02545762 -26.42798581 140.02545762 -38.85797119 146.73503113 C-42.94281338 148.99026821 -46.88458424 150.76630413 -51.32910156 152.20092773 C-60.12236192 155.36469103 -67.73537769 159.09025768 -71.93517113 167.7902422 C-75.78393218 176.76346034 -78.3090288 186.22866964 -80.82476807 195.64282227 C-81.9468451 199.76761925 -83.16854484 203.86252838 -84.3828125 207.9609375 C-86.36485216 214.6897675 -88.27593717 221.4345133 -90.12412453 228.20129013 C-91.11131097 231.77631642 -92.16237565 235.31715575 -93.31414795 238.84289551 C-93.55069281 239.57039127 -93.78723766 240.29788704 -94.03095055 241.04742813 C-94.48621855 242.43290254 -94.95039318 243.81549337 -95.42493629 245.19448471 C-96.94683144 249.80271592 -96.94683144 249.80271592 -95.875 254.375 C-94.08100522 256.57108314 -94.08100522 256.57108314 -91.8125 258.6875 C-90.98878906 259.48414063 -90.16507812 260.28078125 -89.31640625 261.1015625 C-86.69320799 263.54428472 -84.01682914 265.9045606 -81.296875 268.23828125 C-77.96799959 271.17520843 -74.73793147 274.21348821 -71.5 277.25 C-66.47090309 281.96315537 -61.44191103 286.6688756 -56.24609375 291.19921875 C-53.875 293.375 -53.875 293.375 -51.34765625 296.14453125 C-46.46513314 301.38052795 -46.46513314 301.38052795 -39.9621582 303.85449219 C-38.33540161 303.79503418 -38.33540161 303.79503418 -36.67578125 303.734375 C-35.35698975 303.6938501 -34.03819824 303.6533252 -32.67944336 303.61157227 C-31.07790157 303.53395676 -29.47642567 303.45497559 -27.875 303.375 C-25.87184981 303.29101966 -23.86867408 303.20764685 -21.86547852 303.12475586 C-16.17494178 302.87633509 -10.48826513 302.57680962 -4.80126953 302.25805664 C-1.22353294 302.06104255 2.3548663 301.88306232 5.93359375 301.70507812 C8.21881468 301.57929468 10.50397384 301.45238272 12.7890625 301.32421875 C13.85363678 301.27408127 14.91821106 301.22394379 16.01504517 301.17228699 C23.08358835 300.81959673 23.08358835 300.81959673 29.125 297.375 C30.72929897 295.15432764 32.09563937 293.0546502 33.4375 290.6875 C33.82139893 290.02758057 34.20529785 289.36766113 34.60083008 288.68774414 C38.77491197 281.4141899 42.53669642 273.95162124 46.125 266.375 C46.63675781 265.31667969 47.14851562 264.25835937 47.67578125 263.16796875 C59.74554734 236.78365528 65.13295828 207.81183204 66.02441406 178.95507812 C66.09152409 177.23367332 66.18730633 175.51315014 66.31152344 173.79492188 C67.26705537 164.27662359 67.26705537 164.27662359 63.80853271 155.7951355 C60.28968738 152.90023836 56.29545547 151.06297826 52.13317871 149.2711792 C49.1392581 147.93509822 46.37873078 146.25206529 43.5703125 144.56640625 C41.46424617 143.35554466 39.35746999 142.1459169 37.25 140.9375 C28.77898556 136.06926338 20.32553224 131.17590466 11.93603516 126.16821289 C6.19070169 122.7576101 5.20126282 123.7757942 -0.5234375 126.7421875 Z M-214.875 273.375 C-216.51636403 274.90264587 -218.17852243 276.40880028 -219.875 277.875 C-223.69704506 281.30123457 -227.48134152 284.76534993 -231.25 288.25 C-231.7960791 288.7548291 -232.3421582 289.2596582 -232.90478516 289.77978516 C-234.01077278 290.80237577 -235.11672976 291.82499952 -236.22265625 292.84765625 C-238.38202159 294.84366535 -240.54195573 296.83902042 -242.70678711 298.82910156 C-243.72360404 299.76532598 -244.73752045 300.70471192 -245.74829102 301.64746094 C-248.44373548 304.14454331 -251.2107021 306.35434765 -254.1875 308.5 C-255.074375 309.44875 -255.96125 310.3975 -256.875 311.375 C-256.45818036 322.25516771 -253.14254113 333.01311757 -250.54734325 343.54190445 C-249.71331073 346.92581319 -248.9000039 350.31189023 -248.1340332 353.71191406 C-247.24378514 357.66159795 -246.27157062 361.58688661 -245.29296875 365.515625 C-245.02993454 366.73026428 -244.76690033 367.94490356 -244.49589539 369.1963501 C-242.82037012 375.70558177 -242.82037012 375.70558177 -238.11535645 380.21409607 C-235.05802451 381.51048434 -232.07448161 382.4949607 -228.875 383.375 C-227.06270374 383.99432181 -225.25237749 384.61948262 -223.4453125 385.25390625 C-221.63335576 385.82518463 -219.81812648 386.38617221 -218 386.9375 C-217.02401855 387.23414551 -216.04803711 387.53079102 -215.04248047 387.83642578 C-199.16691696 392.50151273 -182.55724755 395.48250153 -165.984375 395.578125 C-165.16582535 395.58513931 -164.3472757 395.59215363 -163.50392151 395.59938049 C-160.87755768 395.61678269 -158.25141937 395.62323262 -155.625 395.625 C-154.72727875 395.62567474 -153.8295575 395.62634949 -152.90463257 395.62704468 C-139.66127029 395.6112159 -126.86425143 395.16449048 -113.875 392.375 C-112.63290771 392.12556641 -112.63290771 392.12556641 -111.36572266 391.87109375 C-100.82205044 389.72944131 -90.49446654 386.84108261 -80.25 383.5625 C-79.2595166 383.26770752 -78.2690332 382.97291504 -77.24853516 382.66918945 C-76.32862793 382.35941162 -75.4087207 382.04963379 -74.4609375 381.73046875 C-73.6467334 381.46903076 -72.8325293 381.20759277 -71.99365234 380.93823242 C-68.68934264 378.50017123 -67.98253868 375.1670118 -66.875 371.375 C-66.59573669 370.42094772 -66.31647339 369.46689545 -66.02874756 368.4839325 C-65.06553694 365.08546568 -64.14267958 361.67812978 -63.23046875 358.265625 C-62.89702957 357.02125671 -62.56359039 355.77688843 -62.220047 354.49481201 C-61.52010871 351.87680242 -60.82414181 349.25776911 -60.13012695 346.63818359 C-59.24030387 343.28350354 -58.33334881 339.93370155 -57.42257214 336.58465958 C-56.55449277 333.37741578 -55.70637897 330.16496593 -54.85546875 326.953125 C-54.52645065 325.75206116 -54.19743256 324.55099731 -53.85844421 323.3135376 C-53.56766495 322.19847839 -53.27688568 321.08341919 -52.97729492 319.93457031 C-52.58449593 318.46519012 -52.58449593 318.46519012 -52.1837616 316.96612549 C-51.82878615 313.98717362 -52.23753655 312.84200517 -53.875 310.375 C-55.50591462 308.54417433 -55.50591462 308.54417433 -57.4375 306.80078125 C-58.14680664 306.13788086 -58.85611328 305.47498047 -59.58691406 304.79199219 C-60.34198242 304.09750977 -61.09705078 303.40302734 -61.875 302.6875 C-62.64811523 301.96852539 -63.42123047 301.24955078 -64.21777344 300.50878906 C-68.91449774 296.15078031 -73.64716104 291.83405643 -78.4296875 287.5703125 C-81.9505305 284.40942789 -85.41962836 281.19352905 -88.89257812 277.98022461 C-93.30934062 273.89419537 -97.74130166 269.82508414 -102.18115234 265.76416016 C-105.77474483 262.47525517 -105.77474483 262.47525517 -106.875 261.375 C-109.75772442 261.21578468 -112.61753633 261.12197994 -115.50292969 261.07104492 C-116.86170982 261.04191261 -116.86170982 261.04191261 -118.24794006 261.01219177 C-126.64540562 260.84289071 -135.04417627 260.74656498 -143.44295883 260.67112255 C-149.08348656 260.61984748 -154.72154963 260.54566474 -160.36083984 260.41479492 C-165.81525801 260.28870699 -171.26745754 260.22266993 -176.72324371 260.19753456 C-178.79495594 260.17800354 -180.86658828 260.13776803 -182.93746185 260.07567406 C-197.93481173 259.64720744 -205.14704055 261.88259886 -214.875 273.375 Z M-325.875 313.375 C-323.50498815 317.73485114 -320.5658472 321.1082553 -317.1875 324.6875 C-316.6500415 325.26145508 -316.11258301 325.83541016 -315.55883789 326.42675781 C-314.00335566 328.08177412 -312.44046425 329.72943006 -310.875 331.375 C-310.15570313 332.13683594 -309.43640625 332.89867187 -308.6953125 333.68359375 C-293.84010235 349.00110298 -275.0427811 362.03909444 -255.875 371.375 C-258.3383713 359.28208636 -261.39505364 347.36132377 -264.5625 335.4375 C-264.86835526 334.28474579 -264.86835526 334.28474579 -265.1803894 333.10870361 C-265.7682602 330.89621944 -266.35812512 328.68428141 -266.94921875 326.47265625 C-267.12825745 325.80145248 -267.30729614 325.13024872 -267.49176025 324.43870544 C-268.22144147 321.72203297 -268.98515412 319.04453764 -269.875 316.375 C-276.24269226 315.94307235 -282.61072203 315.51640656 -288.97900391 315.09326172 C-291.14184401 314.94894323 -293.30460642 314.80345514 -295.46728516 314.65673828 C-298.58996819 314.44510416 -301.71291373 314.2377877 -304.8359375 314.03125 C-305.79051849 313.96562866 -306.74509949 313.90000732 -307.72860718 313.83239746 C-313.78690573 313.43696673 -319.80430486 313.29716398 -325.875 313.375 Z M-8.33056641 314.17456055 C-10.73713092 314.31176629 -13.14392145 314.44425886 -15.55078125 314.57617188 C-17.11459914 314.66378086 -18.67840177 314.75166267 -20.2421875 314.83984375 C-20.94463593 314.87843002 -21.64708435 314.9170163 -22.37081909 314.95677185 C-28.21832299 315.29504417 -34.044367 315.82060626 -39.875 316.375 C-41.73324216 323.42073911 -43.58387153 330.46844568 -45.42919922 337.51757812 C-46.0579764 339.91582584 -46.68850075 342.31361618 -47.32080078 344.7109375 C-48.22887552 348.15506397 -49.13067291 351.60078151 -50.03125 355.046875 C-50.31560913 356.11991882 -50.59996826 357.19296265 -50.89294434 358.29852295 C-51.15321411 359.29925842 -51.41348389 360.2999939 -51.68164062 361.33105469 C-52.02805603 362.65009796 -52.02805603 362.65009796 -52.38146973 363.99578857 C-53.01040706 366.62279389 -53.01040706 366.62279389 -52.875 370.375 C-27.68964334 361.17357026 1.20103047 336.49820835 16.125 314.375 C16.125 314.045 16.125 313.715 16.125 313.375 C7.95371296 313.23346501 -0.17651005 313.70849621 -8.33056641 314.17456055 Z " fill="#000000" transform="translate(410.875,80.625)"/>
</svg>
