<?xml version="1.0" encoding="UTF-8"?>
<!DOCTYPE svg PUBLIC "-//W3C//DTD SVG 1.1//EN" "http://www.w3.org/Graphics/SVG/1.1/DTD/svg11.dtd">
<svg xmlns="http://www.w3.org/2000/svg" version="1.1" width="512px" height="512px" style="shape-rendering:geometricPrecision; text-rendering:geometricPrecision; image-rendering:optimizeQuality; fill-rule:evenodd; clip-rule:evenodd" xmlns:xlink="http://www.w3.org/1999/xlink">
<g><path style="opacity:0.995" fill="#ab604b" d="M 328.5,87.5 C 324.235,93.1041 319.568,98.4374 314.5,103.5C 301.172,111.549 286.672,115.216 271,114.5C 261.099,114.474 251.265,113.641 241.5,112C 228.642,109.119 215.976,105.619 203.5,101.5C 203.5,101.167 203.5,100.833 203.5,100.5C 204.833,76.8333 204.833,53.1667 203.5,29.5C 208.708,26.6071 214.374,24.7737 220.5,24C 242.884,21.5964 263.551,26.4297 282.5,38.5C 297.515,32.5361 310.682,35.2028 322,46.5C 324.194,49.5544 325.861,52.8878 327,56.5C 328.399,66.7683 328.899,77.1017 328.5,87.5 Z"/></g>
<g><path style="opacity:0.999" fill="#8b4f4e" d="M 203.5,29.5 C 204.833,53.1667 204.833,76.8333 203.5,100.5C 197.309,98.741 191.309,96.4077 185.5,93.5C 184.501,105.482 184.168,117.482 184.5,129.5C 179.244,129.643 174.577,131.31 170.5,134.5C 170.039,110.115 170.539,85.7813 172,61.5C 177.961,46.3719 188.461,35.7052 203.5,29.5 Z"/></g>
<g><path style="opacity:0.985" fill="#fab53e" d="M 436.5,49.5 C 429.259,58.2452 421.426,66.5786 413,74.5C 409.833,71.3333 406.667,68.1667 403.5,65C 399.333,63.8333 397.833,65.3333 399,69.5C 403.378,74.2135 408.044,78.5468 413,82.5C 422.422,75.0817 431.256,66.9151 439.5,58C 440.094,57.5357 440.761,57.369 441.5,57.5C 444.846,67.375 443.846,76.7083 438.5,85.5C 423.971,92.3605 411.138,90.0272 400,78.5C 393.374,67.4117 392.874,56.0783 398.5,44.5C 412.317,37.8846 424.984,39.5513 436.5,49.5 Z"/></g>
<g><path style="opacity:1" fill="#fd9a2e" d="M 398.5,44.5 C 392.874,56.0783 393.374,67.4117 400,78.5C 411.138,90.0272 423.971,92.3605 438.5,85.5C 428.898,97.9722 416.564,101.472 401.5,96C 388.031,88.2279 382.864,76.7279 386,61.5C 388.106,54.2395 392.273,48.5729 398.5,44.5 Z"/></g>
<g><path style="opacity:0.99" fill="#38324a" d="M 441.5,57.5 C 440.761,57.369 440.094,57.5357 439.5,58C 431.256,66.9151 422.422,75.0817 413,82.5C 408.044,78.5468 403.378,74.2135 399,69.5C 397.833,65.3333 399.333,63.8333 403.5,65C 406.667,68.1667 409.833,71.3333 413,74.5C 421.426,66.5786 429.259,58.2452 436.5,49.5C 441.995,45.8682 444.495,47.2016 444,53.5C 443.338,54.9839 442.504,56.3172 441.5,57.5 Z"/></g>
<g><path style="opacity:0.986" fill="#8b4f4f" d="M 328.5,87.5 C 328.5,103.167 328.5,118.833 328.5,134.5C 326.112,132.639 323.446,131.306 320.5,130.5C 318.565,129.85 316.565,129.517 314.5,129.5C 314.5,120.833 314.5,112.167 314.5,103.5C 319.568,98.4374 324.235,93.1041 328.5,87.5 Z"/></g>
<g><path style="opacity:0.996" fill="#ee8778" d="M 203.5,100.5 C 203.5,100.833 203.5,101.167 203.5,101.5C 203.333,126.502 203.5,151.502 204,176.5C 208.386,202.789 222.886,220.955 247.5,231C 252.431,232.487 257.431,233.154 262.5,233C 270.6,231.281 278.266,228.448 285.5,224.5C 285.5,228.167 285.5,231.833 285.5,235.5C 271.48,241.503 256.814,244.336 241.5,244C 232.607,247.963 230.107,254.463 234,263.5C 238.974,268.708 244.474,273.042 250.5,276.5C 229.618,274.946 217.285,263.946 213.5,243.5C 213.666,236.825 213.5,230.158 213,223.5C 196.844,211.976 187.178,196.309 184,176.5C 174.173,175.423 167.173,170.423 163,161.5C 159.139,150.599 161.639,141.599 170.5,134.5C 174.577,131.31 179.244,129.643 184.5,129.5C 184.168,117.482 184.501,105.482 185.5,93.5C 191.309,96.4077 197.309,98.741 203.5,100.5 Z"/></g>
<g><path style="opacity:0.999" fill="#feae92" d="M 203.5,101.5 C 215.976,105.619 228.642,109.119 241.5,112C 251.265,113.641 261.099,114.474 271,114.5C 286.672,115.216 301.172,111.549 314.5,103.5C 314.5,112.167 314.5,120.833 314.5,129.5C 314.17,145.009 314.504,160.342 315.5,175.5C 312.353,196.146 302.353,212.479 285.5,224.5C 278.266,228.448 270.6,231.281 262.5,233C 257.431,233.154 252.431,232.487 247.5,231C 222.886,220.955 208.386,202.789 204,176.5C 203.5,151.502 203.333,126.502 203.5,101.5 Z"/></g>
<g><path style="opacity:0.98" fill="#64b8fe" d="M 436.5,133.5 C 428.869,141.632 421.036,149.632 413,157.5C 409.833,154.333 406.667,151.167 403.5,148C 398.917,147.066 397.417,148.9 399,153.5C 402.833,157.333 406.667,161.167 410.5,165C 412.167,165.667 413.833,165.667 415.5,165C 423.755,156.241 432.421,148.074 441.5,140.5C 444.843,150.415 443.843,159.748 438.5,168.5C 423.326,175.901 410.159,173.234 399,160.5C 393.705,150.708 393.205,140.708 397.5,130.5C 397.376,129.893 397.043,129.56 396.5,129.5C 407.382,122.153 418.716,121.653 430.5,128C 432.396,130.068 434.396,131.901 436.5,133.5 Z"/></g>
<g><path style="opacity:1" fill="#332f4b" d="M 213.5,127.5 C 219.526,126.676 224.693,128.342 229,132.5C 230.009,134.025 230.509,135.692 230.5,137.5C 222.14,137.831 213.807,137.498 205.5,136.5C 207.504,132.834 210.171,129.834 213.5,127.5 Z"/></g>
<g><path style="opacity:1" fill="#34304c" d="M 276.5,127.5 C 281.08,127.113 285.414,127.947 289.5,130C 291.54,132.185 292.874,134.685 293.5,137.5C 285.167,137.5 276.833,137.5 268.5,137.5C 268.608,135.217 269.441,133.217 271,131.5C 273.015,130.303 274.849,128.97 276.5,127.5 Z"/></g>
<g><path style="opacity:1" fill="#ed8778" d="M 314.5,129.5 C 316.565,129.517 318.565,129.85 320.5,130.5C 321.125,145.742 320.459,160.742 318.5,175.5C 317.5,175.5 316.5,175.5 315.5,175.5C 314.504,160.342 314.17,145.009 314.5,129.5 Z"/></g>
<g><path style="opacity:0.971" fill="#feae92" d="M 320.5,130.5 C 323.446,131.306 326.112,132.639 328.5,134.5C 336.567,140.865 339.401,149.198 337,159.5C 334.063,168.606 327.897,173.939 318.5,175.5C 320.459,160.742 321.125,145.742 320.5,130.5 Z"/></g>
<g><path style="opacity:0.986" fill="#333352" d="M 441.5,140.5 C 432.421,148.074 423.755,156.241 415.5,165C 413.833,165.667 412.167,165.667 410.5,165C 406.667,161.167 402.833,157.333 399,153.5C 397.417,148.9 398.917,147.066 403.5,148C 406.667,151.167 409.833,154.333 413,157.5C 421.036,149.632 428.869,141.632 436.5,133.5C 438.251,130.805 440.584,130.139 443.5,131.5C 445.078,135.042 444.412,138.042 441.5,140.5 Z"/></g>
<g><path style="opacity:1" fill="#4082ff" d="M 396.5,129.5 C 397.043,129.56 397.376,129.893 397.5,130.5C 393.205,140.708 393.705,150.708 399,160.5C 410.159,173.234 423.326,175.901 438.5,168.5C 434.688,175.084 429.021,179.25 421.5,181C 395.065,182.9 383.232,170.733 386,144.5C 387.542,138.067 391.042,133.067 396.5,129.5 Z"/></g>
<g><path style="opacity:1" fill="#ee8778" d="M 247.5,154.5 C 250.099,154.549 252.266,155.549 254,157.5C 254.667,162.5 254.667,167.5 254,172.5C 250.667,176.5 247.333,176.5 244,172.5C 243.333,167.5 243.333,162.5 244,157.5C 245.145,156.364 246.312,155.364 247.5,154.5 Z"/></g>
<g><path style="opacity:1" fill="#ee8778" d="M 229.5,187.5 C 242.85,187.167 256.183,187.501 269.5,188.5C 264.844,200.332 256.177,205.165 243.5,203C 236.185,200.187 231.518,195.02 229.5,187.5 Z"/></g>
<g><path style="opacity:0.99" fill="#e53c61" d="M 436.5,216.5 C 429.76,224.745 422.427,232.578 414.5,240C 410.717,238.252 407.384,235.586 404.5,232C 399.448,229.38 397.614,230.88 399,236.5C 403.378,241.214 408.044,245.547 413,249.5C 422.045,240.951 431.212,232.618 440.5,224.5C 444.305,232.262 444.472,240.262 441,248.5C 439.97,250.346 438.804,252.013 437.5,253.5C 437.44,252.957 437.107,252.624 436.5,252.5C 421.533,259.633 409.033,256.633 399,243.5C 393.691,234.046 393.191,224.379 397.5,214.5C 397.043,213.702 396.376,213.369 395.5,213.5C 409.856,203.607 423.523,204.607 436.5,216.5 Z"/></g>
<g><path style="opacity:0.981" fill="#362e4b" d="M 440.5,224.5 C 431.212,232.618 422.045,240.951 413,249.5C 408.044,245.547 403.378,241.214 399,236.5C 397.614,230.88 399.448,229.38 404.5,232C 407.384,235.586 410.717,238.252 414.5,240C 422.427,232.578 429.76,224.745 436.5,216.5C 441.995,212.868 444.495,214.202 444,220.5C 442.624,221.705 441.458,223.038 440.5,224.5 Z"/></g>
<g><path style="opacity:1" fill="#cf2955" d="M 395.5,213.5 C 396.376,213.369 397.043,213.702 397.5,214.5C 393.191,224.379 393.691,234.046 399,243.5C 409.033,256.633 421.533,259.633 436.5,252.5C 437.107,252.624 437.44,252.957 437.5,253.5C 425.763,266.814 412.097,268.981 396.5,260C 383.295,247.276 381.462,233.109 391,217.5C 392.371,215.959 393.871,214.625 395.5,213.5 Z"/></g>
<g><path style="opacity:0.998" fill="#feae92" d="M 285.5,235.5 C 285.5,238.167 285.5,240.833 285.5,243.5C 282.001,262.995 270.335,273.995 250.5,276.5C 244.474,273.042 238.974,268.708 234,263.5C 230.107,254.463 232.607,247.963 241.5,244C 256.814,244.336 271.48,241.503 285.5,235.5 Z"/></g>
<g><path style="opacity:0.995" fill="#46cb6b" d="M 213.5,243.5 C 217.285,263.946 229.618,274.946 250.5,276.5C 270.335,273.995 282.001,262.995 285.5,243.5C 298.837,243.333 312.171,243.5 325.5,244C 345.224,246.607 361.057,255.774 373,271.5C 385.843,289.862 398.676,308.196 411.5,326.5C 405.824,326.334 400.157,326.501 394.5,327C 381.089,329.515 367.755,332.349 354.5,335.5C 353.438,336.425 353.438,337.425 354.5,338.5C 353.539,340.265 353.205,342.265 353.5,344.5C 355.099,344.768 356.432,344.434 357.5,343.5C 372.851,341.053 388.184,338.386 403.5,335.5C 411.936,335.885 418.936,339.219 424.5,345.5C 427.83,349.163 429.83,353.496 430.5,358.5C 427.219,365.959 421.885,371.793 414.5,376C 392.594,381.36 370.594,386.193 348.5,390.5C 350.532,378.607 347.532,368.274 339.5,359.5C 344.633,347.279 349.3,334.779 353.5,322C 353.031,318.196 351.031,315.529 347.5,314C 319.833,313.333 292.167,313.333 264.5,314C 262.791,315.916 261.457,318.082 260.5,320.5C 259.398,321.176 258.398,321.842 257.5,322.5C 254.572,323.591 252.406,325.591 251,328.5C 245.395,343.152 239.895,357.818 234.5,372.5C 233.512,369.919 232.512,367.252 231.5,364.5C 229.565,360.293 226.898,356.627 223.5,353.5C 222.551,351.223 221.218,349.223 219.5,347.5C 223.363,329.728 217.696,316.061 202.5,306.5C 199.966,302.608 197.3,298.775 194.5,295C 193.167,294.333 191.833,294.333 190.5,295C 188.595,296.421 186.595,297.588 184.5,298.5C 182.72,295.546 180.72,292.713 178.5,290C 167.532,286.638 163.365,290.471 166,301.5C 167.752,303.351 169.252,305.351 170.5,307.5C 157.285,316.278 152.118,328.612 155,344.5C 156.459,350.085 158.959,355.085 162.5,359.5C 139.523,365.83 116.523,372.33 93.5,379C 84.5463,380.767 76.713,378.601 70,372.5C 69.5357,373.094 69.369,373.761 69.5,374.5C 65.1826,364.729 65.6826,355.062 71,345.5C 89,320.167 107,294.833 125,269.5C 135.335,256.844 148.502,248.677 164.5,245C 180.795,243.612 197.128,243.112 213.5,243.5 Z M 354.5,338.5 C 355.248,340.332 356.248,341.999 357.5,343.5C 356.432,344.434 355.099,344.768 353.5,344.5C 353.205,342.265 353.539,340.265 354.5,338.5 Z"/></g>
<g><path style="opacity:1" fill="#5b5f8a" d="M 184.5,298.5 C 182.167,300.5 179.833,302.5 177.5,304.5C 175.287,305.773 172.954,306.773 170.5,307.5C 169.252,305.351 167.752,303.351 166,301.5C 163.365,290.471 167.532,286.638 178.5,290C 180.72,292.713 182.72,295.546 184.5,298.5 Z"/></g>
<g><path style="opacity:1" fill="#33334d" d="M 202.5,306.5 C 200.167,305.833 197.833,305.167 195.5,304.5C 194.343,302.862 193.176,301.196 192,299.5C 190.333,300.733 188.833,302.067 187.5,303.5C 184.119,303.46 180.786,303.793 177.5,304.5C 179.833,302.5 182.167,300.5 184.5,298.5C 186.595,297.588 188.595,296.421 190.5,295C 191.833,294.333 193.167,294.333 194.5,295C 197.3,298.775 199.966,302.608 202.5,306.5 Z"/></g>
<g><path style="opacity:1" fill="#4ab769" d="M 195.5,304.5 C 194.833,304.5 194.167,304.5 193.5,304.5C 191.735,303.539 189.735,303.205 187.5,303.5C 188.833,302.067 190.333,300.733 192,299.5C 193.176,301.196 194.343,302.862 195.5,304.5 Z"/></g>
<g><path style="opacity:1" fill="#feae92" d="M 187.5,303.5 C 189.735,303.205 191.735,303.539 193.5,304.5C 192.448,304.351 191.448,304.517 190.5,305C 203.504,314.819 207.671,327.652 203,343.5C 196.821,357.165 186.321,364.832 171.5,366.5C 171.167,366.5 170.833,366.5 170.5,366.5C 167.874,364.177 165.207,361.843 162.5,359.5C 158.959,355.085 156.459,350.085 155,344.5C 152.118,328.612 157.285,316.278 170.5,307.5C 172.954,306.773 175.287,305.773 177.5,304.5C 180.786,303.793 184.119,303.46 187.5,303.5 Z"/></g>
<g><path style="opacity:1" fill="#ec8878" d="M 193.5,304.5 C 194.167,304.5 194.833,304.5 195.5,304.5C 197.833,305.167 200.167,305.833 202.5,306.5C 217.696,316.061 223.363,329.728 219.5,347.5C 216.924,352.979 213.591,357.979 209.5,362.5C 197.597,371.224 184.93,372.557 171.5,366.5C 186.321,364.832 196.821,357.165 203,343.5C 207.671,327.652 203.504,314.819 190.5,305C 191.448,304.517 192.448,304.351 193.5,304.5 Z"/></g>
<g><path style="opacity:1" fill="#dcdbfc" d="M 339.5,359.5 C 330.303,351.495 319.637,348.662 307.5,351C 303.493,352.337 299.827,354.17 296.5,356.5C 280.818,369.979 278.318,385.645 289,403.5C 296.621,412.894 306.454,417.228 318.5,416.5C 315.91,422.43 313.41,428.43 311,434.5C 309.421,436.041 307.587,437.208 305.5,438C 276.997,438.83 248.664,438.664 220.5,437.5C 225.844,437.666 231.177,437.499 236.5,437C 231.931,434.459 230.431,430.625 232,425.5C 244.779,391.16 257.946,356.993 271.5,323C 266.845,322.501 262.179,322.334 257.5,322.5C 258.398,321.842 259.398,321.176 260.5,320.5C 261.457,318.082 262.791,315.916 264.5,314C 292.167,313.333 319.833,313.333 347.5,314C 351.031,315.529 353.031,318.196 353.5,322C 349.3,334.779 344.633,347.279 339.5,359.5 Z"/></g>
<g><path style="opacity:1" fill="#e63f62" d="M 257.5,322.5 C 262.179,322.334 266.845,322.501 271.5,323C 257.946,356.993 244.779,391.16 232,425.5C 230.431,430.625 231.931,434.459 236.5,437C 231.177,437.499 225.844,437.666 220.5,437.5C 214.981,435.47 212.814,431.47 214,425.5C 219.605,410.848 225.105,396.182 230.5,381.5C 231.833,378.5 233.167,375.5 234.5,372.5C 239.895,357.818 245.395,343.152 251,328.5C 252.406,325.591 254.572,323.591 257.5,322.5 Z"/></g>
<g><path style="opacity:1" fill="#199e5f" d="M 411.5,326.5 C 416.217,332.554 420.55,338.887 424.5,345.5C 418.936,339.219 411.936,335.885 403.5,335.5C 388.184,338.386 372.851,341.053 357.5,343.5C 356.248,341.999 355.248,340.332 354.5,338.5C 353.438,337.425 353.438,336.425 354.5,335.5C 367.755,332.349 381.089,329.515 394.5,327C 400.157,326.501 405.824,326.334 411.5,326.5 Z"/></g>
<g><path style="opacity:1" fill="#3b3856" d="M 219.5,347.5 C 221.218,349.223 222.551,351.223 223.5,353.5C 220.69,356.136 217.69,358.636 214.5,361C 212.975,362.009 211.308,362.509 209.5,362.5C 213.591,357.979 216.924,352.979 219.5,347.5 Z"/></g>
<g><path style="opacity:1" fill="#feae93" d="M 339.5,359.5 C 347.532,368.274 350.532,378.607 348.5,390.5C 347.362,393.913 346.029,397.246 344.5,400.5C 344.5,401.167 344.167,401.5 343.5,401.5C 322.167,410 306.334,404 296,383.5C 293.647,374.635 294.147,365.968 297.5,357.5C 297.376,356.893 297.043,356.56 296.5,356.5C 299.827,354.17 303.493,352.337 307.5,351C 319.637,348.662 330.303,351.495 339.5,359.5 Z"/></g>
<g><path style="opacity:1" fill="#595f88" d="M 223.5,353.5 C 226.898,356.627 229.565,360.293 231.5,364.5C 230.448,364.351 229.448,364.517 228.5,365C 224.854,367.628 221.52,370.462 218.5,373.5C 215.271,370.057 212.271,366.39 209.5,362.5C 211.308,362.509 212.975,362.009 214.5,361C 217.69,358.636 220.69,356.136 223.5,353.5 Z"/></g>
<g><path style="opacity:1" fill="#ee8879" d="M 296.5,356.5 C 297.043,356.56 297.376,356.893 297.5,357.5C 294.147,365.968 293.647,374.635 296,383.5C 306.334,404 322.167,410 343.5,401.5C 337.867,410.824 329.533,415.824 318.5,416.5C 306.454,417.228 296.621,412.894 289,403.5C 278.318,385.645 280.818,369.979 296.5,356.5 Z"/></g>
<g><path style="opacity:1" fill="#1b9e5f" d="M 430.5,358.5 C 430.977,373.729 423.977,383.562 409.5,388C 390.886,392.154 372.219,395.987 353.5,399.5C 350.482,399.704 347.482,400.037 344.5,400.5C 346.029,397.246 347.362,393.913 348.5,390.5C 370.594,386.193 392.594,381.36 414.5,376C 421.885,371.793 427.219,365.959 430.5,358.5 Z"/></g>
<g><path style="opacity:0.999" fill="#46cb6a" d="M 209.5,362.5 C 212.271,366.39 215.271,370.057 218.5,373.5C 222.223,376.551 226.223,379.218 230.5,381.5C 225.105,396.182 219.605,410.848 214,425.5C 212.814,431.47 214.981,435.47 220.5,437.5C 248.664,438.664 276.997,438.83 305.5,438C 307.587,437.208 309.421,436.041 311,434.5C 313.41,428.43 315.91,422.43 318.5,416.5C 329.533,415.824 337.867,410.824 343.5,401.5C 344.167,401.5 344.5,401.167 344.5,400.5C 347.482,400.037 350.482,399.704 353.5,399.5C 353.5,428.833 353.5,458.167 353.5,487.5C 288.833,487.5 224.167,487.5 159.5,487.5C 159.173,448.094 159.506,408.761 160.5,369.5C 163.823,368.508 167.156,367.508 170.5,366.5C 170.833,366.5 171.167,366.5 171.5,366.5C 184.93,372.557 197.597,371.224 209.5,362.5 Z"/></g>
<g><path style="opacity:1" fill="#33334c" d="M 231.5,364.5 C 232.512,367.252 233.512,369.919 234.5,372.5C 233.167,375.5 231.833,378.5 230.5,381.5C 226.223,379.218 222.223,376.551 218.5,373.5C 221.52,370.462 224.854,367.628 228.5,365C 229.448,364.517 230.448,364.351 231.5,364.5 Z"/></g>
<g><path style="opacity:1" fill="#189d5f" d="M 162.5,359.5 C 165.207,361.843 167.874,364.177 170.5,366.5C 167.156,367.508 163.823,368.508 160.5,369.5C 158.506,408.486 157.839,447.819 158.5,487.5C 153.5,487.5 148.5,487.5 143.5,487.5C 143.5,450.167 143.5,412.833 143.5,375.5C 126.794,380.347 109.961,384.68 93,388.5C 82.3243,388.258 74.4909,383.592 69.5,374.5C 69.369,373.761 69.5357,373.094 70,372.5C 76.713,378.601 84.5463,380.767 93.5,379C 116.523,372.33 139.523,365.83 162.5,359.5 Z"/></g>
<g><path style="opacity:1" fill="#30b665" d="M 160.5,369.5 C 159.506,408.761 159.173,448.094 159.5,487.5C 159.167,487.5 158.833,487.5 158.5,487.5C 157.839,447.819 158.506,408.486 160.5,369.5 Z"/></g>
</svg>
